<svg width="72" height="72" viewBox="0 0 72 72" fill="none" xmlns="http://www.w3.org/2000/svg">
<g clip-path="url(#clip0_1297_479)">
<path d="M37.4979 0C38.4962 0.228664 39.5146 0.393748 40.4906 0.696031C43.7455 1.70327 46.1883 3.75567 47.9161 6.66807C48.157 7.0752 48.3924 7.19232 48.8608 7.12316C55.9639 6.06796 62.7971 11.1577 63.9225 18.3221C65.1306 26.0153 59.8111 33.0091 52.0744 33.8981C51.9829 33.9081 51.8926 33.9315 51.7242 33.9639C51.7119 34.2048 51.6896 34.4524 51.6896 34.7001C51.6873 38.0742 51.6896 41.4484 51.6873 44.8226C51.6851 47.3078 50.3488 48.6441 47.867 48.6474C46.485 48.6497 45.1018 48.6608 43.7198 48.643C42.8029 48.6307 42.2842 47.9994 42.5441 47.252C42.7349 46.7032 43.1632 46.5326 43.7031 46.5337C45.1085 46.537 46.5151 46.5382 47.9205 46.5337C49.1363 46.5292 49.5669 46.0964 49.5758 44.8806C49.5803 44.2504 49.5758 43.6213 49.5758 42.9364H22.8221C22.8221 43.8098 22.7641 44.6955 22.8411 45.5677C22.8991 46.2147 23.4367 46.5281 24.2633 46.5315C26.0212 46.5393 27.778 46.5337 29.5359 46.5337C32.7696 46.5337 36.0032 46.5337 39.2369 46.5337C39.4711 46.5337 39.7087 46.5203 39.9385 46.5571C40.5007 46.6475 40.823 47.0144 40.8409 47.5632C40.8576 48.083 40.5631 48.4567 40.0467 48.5861C39.8013 48.6474 39.5369 48.6441 39.2804 48.6452C34.3356 48.6486 29.392 48.6497 24.4473 48.6463C22.0079 48.6452 20.6515 47.2989 20.647 44.8695C20.6415 41.4953 20.6459 38.1211 20.6459 34.7469C20.6459 34.4948 20.6459 34.2416 20.6459 33.946C18.6114 33.7151 16.762 33.1228 15.0319 32.1346C6.78887 27.4241 6.06496 15.3975 13.6901 9.73886C16.6917 7.51134 20.0358 6.61899 23.7468 7.13543C24.096 7.18451 24.3782 7.22244 24.6236 6.8075C26.9604 2.86109 30.4115 0.60345 34.9859 0.0914656C35.0752 0.0814267 35.1611 0.0312322 35.2481 0C35.9976 0 36.7483 0 37.4979 0ZM49.5747 40.7346C49.5747 38.5684 49.5647 36.4847 49.5825 34.4011C49.5859 33.9672 49.3527 33.9516 49.0248 33.8757C47.8436 33.6013 46.6556 33.3348 45.5067 32.9555C44.4393 32.603 44.1102 32.0297 44.3969 31.3549C44.6735 30.7046 45.2557 30.5953 46.2775 30.9957C48.7136 31.9494 51.1876 32.0866 53.7096 31.3682C58.3097 30.0576 61.8456 25.6561 61.9527 21.0059C62.0609 16.3311 59.9572 12.8665 55.9595 10.5487C53.8814 9.34399 51.6015 8.93686 49.1419 9.20791C49.21 9.50127 49.2858 9.7422 49.3204 9.98872C49.4777 11.122 49.6573 12.253 49.7588 13.3919C49.8134 13.9998 49.4855 14.4382 48.8329 14.494C48.1938 14.5486 47.8168 14.2151 47.7086 13.5893C47.6651 13.3361 47.6394 13.0785 47.6272 12.8219C47.3572 7.15997 42.6278 2.41268 36.9759 2.13494C31.141 1.84827 26.1115 5.87053 25.1155 11.634C25.0006 12.2999 25.0028 12.987 24.8924 13.654C24.7942 14.2452 24.3915 14.5497 23.787 14.494C23.1824 14.4371 22.8589 14.0612 22.8578 13.4633C22.8578 12.9022 22.8723 12.3356 22.9549 11.7823C23.0798 10.9368 23.2683 10.1014 23.439 9.21349C22.0279 9.06402 20.676 9.08187 19.352 9.44215C14.9193 10.6479 11.9377 13.4198 10.8234 17.8927C9.76374 22.1447 11.0253 25.8613 14.2478 28.7749C17.8027 31.9907 21.922 32.6332 26.4027 30.9154C27.2482 30.5908 27.8249 30.757 28.0703 31.3772C28.3201 32.0096 28.0446 32.5885 27.1924 32.8596C25.9286 33.2611 24.6358 33.5857 23.3408 33.8735C22.9181 33.9672 22.7329 34.0687 22.7519 34.5249C22.7842 35.3437 22.7608 36.1646 22.7608 36.9856C22.7608 38.2215 22.7608 39.4563 22.7608 40.729H27.6575C27.6575 39.6738 27.6575 38.6498 27.6575 37.6258C27.6575 37.0547 27.8706 36.6086 28.4506 36.4412C29.1511 36.2405 29.7501 36.7513 29.7646 37.5768C29.7836 38.6219 29.7691 39.6682 29.7691 40.7212H34.88C34.88 40.4211 34.8777 40.1668 34.88 39.9125C34.8889 39.0692 34.861 38.2237 34.9201 37.3838C34.9659 36.7379 35.4109 36.3732 35.9887 36.4134C36.5944 36.4546 36.9201 36.8127 36.9714 37.405C37.0015 37.7541 36.9937 38.1066 36.9948 38.4579C36.9982 39.2176 36.9948 39.9772 36.9948 40.7122H42.1292C42.1292 39.5823 42.1113 38.5059 42.1359 37.4306C42.1493 36.835 42.4951 36.4669 43.094 36.4178C43.7031 36.3687 44.0633 36.7089 44.1927 37.2834C44.2429 37.5076 44.2318 37.7485 44.2329 37.9828C44.2374 38.8896 44.234 39.7954 44.234 40.7346H49.5714H49.5747Z" fill="#D95103"/>
<path d="M38.911 63.7493C39.7387 64.2289 40.476 64.6829 41.2423 65.0789C41.4196 65.1704 41.7386 65.1347 41.9271 65.0343C43.1452 64.3851 44.3454 63.7025 45.5523 63.031C45.7163 62.9395 45.8769 62.8402 46.0487 62.7688C46.6253 62.5301 47.182 62.6974 47.4563 63.1793C47.7497 63.6946 47.608 64.2724 47.0202 64.6227C46.0152 65.2206 44.9823 65.7716 43.9617 66.3438C43.7408 66.4676 43.5233 66.5992 43.3114 66.7231C44.0677 68.7442 43.8133 70.1229 42.4715 71.1982C41.3895 72.066 40.1893 72.2478 38.9222 71.6533C38.331 71.3755 37.7599 71.0465 37.2089 70.694C36.8831 70.4865 36.6355 70.4943 36.3221 70.7007C35.9127 70.9695 35.4721 71.1937 35.0427 71.4324C33.5625 72.2567 32.0823 72.1173 30.8855 71.0442C29.8035 70.0749 29.5257 68.5512 30.1548 67.0577C30.1905 66.9718 30.2128 66.8803 30.272 66.7007C27.1521 64.8993 24.0233 63.0923 20.9916 61.3422C20.3836 61.8609 19.8951 62.4208 19.2849 62.77C18.0546 63.4738 16.8544 63.1258 15.6999 62.4543C13.111 60.9473 10.5098 59.4616 7.91866 57.958C7.25721 57.5743 7.03858 56.9742 7.32079 56.4387C7.61861 55.8755 8.28006 55.7338 8.97274 56.1309C11.5505 57.61 14.1205 59.1035 16.6949 60.5904C17.9565 61.3188 18.4394 61.1849 19.1801 59.9033C19.5069 59.3366 19.8304 58.7678 20.1817 58.1521C19.9486 58.0082 19.74 57.8721 19.5248 57.7472C16.7284 56.1298 13.932 54.5157 11.1356 52.8984C10.9337 52.7812 10.7217 52.6708 10.5466 52.5202C10.1149 52.1488 10.0346 51.6725 10.3124 51.1951C10.5734 50.7456 11.0028 50.5626 11.5171 50.7467C11.7781 50.8404 12.0268 50.9787 12.2689 51.1181C15.0273 52.7065 17.7836 54.2982 20.5409 55.8888C20.7618 56.016 20.9871 56.1353 21.2671 56.2893C21.7188 55.494 22.1906 54.7422 22.581 53.9513C22.9447 53.214 22.6971 52.6663 21.846 52.1722C19.3151 50.7054 16.7786 49.2475 14.2454 47.7841C14.0234 47.6558 13.7948 47.5275 13.5985 47.3647C13.1657 47.0033 13.053 46.5471 13.3341 46.0485C13.6174 45.5476 14.0781 45.4272 14.6046 45.59C14.8243 45.6581 15.0251 45.7919 15.227 45.909C17.7423 47.358 20.2565 48.8058 22.7684 50.2592C24.8097 51.4394 25.2982 52.9062 24.3959 55.1058C24.3702 55.1672 24.3635 55.2363 24.339 55.34C25.4711 55.9959 26.6033 56.6518 27.7366 57.3054C30.5542 58.9317 33.3762 60.5491 36.1849 62.1922C36.5942 62.4309 36.8932 62.4677 37.3271 62.2145C41.2478 59.9245 45.1876 57.6668 49.1117 55.3847C49.3504 55.2463 49.6515 54.9931 49.685 54.76C50.0107 52.4544 51.3782 50.8861 53.2644 49.7294C55.6247 48.2816 58.179 47.6134 60.9152 48.3965C63.9001 49.2498 65.3401 52.054 64.4255 55.0221C63.3134 58.6328 59.3268 61.6188 55.5812 61.5999C54.9621 61.5965 54.3152 61.4749 53.734 61.263C53.2343 61.0801 52.8707 61.1247 52.4412 61.398C51.7508 61.8374 51.0335 62.2357 50.3141 62.6272C49.637 62.9953 49.0447 62.857 48.7358 62.2959C48.4402 61.7571 48.6119 61.1972 49.2455 60.8168C50.3096 60.1788 51.376 59.5419 52.4747 58.9697C52.7669 58.818 53.2622 58.7522 53.5254 58.8972C55.5689 60.0238 57.425 59.4649 59.2097 58.3283C60.517 57.4962 61.5554 56.3919 62.2002 54.9597C63.2063 52.7243 62.2247 50.7935 59.8377 50.2905C57.3893 49.774 53.7987 51.1962 52.4725 53.2988C52.1133 53.8677 51.8947 54.5871 51.8233 55.2597C51.7396 56.0472 51.434 56.5235 50.7502 56.9128C47.0459 59.0165 43.3649 61.1593 39.6762 63.2897C39.4386 63.4269 39.2066 63.5731 38.911 63.7526V63.7493ZM21.914 59.398C22.0724 59.5017 22.1851 59.5843 22.3055 59.6534C28.0021 62.9417 33.6986 66.2289 39.3962 69.515C39.5379 69.5964 39.6829 69.6756 39.8335 69.737C40.4737 69.9969 41.1196 69.7704 41.4553 69.1748C41.8022 68.5613 41.6684 67.95 41.085 67.5217C40.8965 67.3834 40.7013 67.2518 40.4994 67.1346C34.8274 63.8519 29.1543 60.5703 23.479 57.2909C23.4042 57.2474 23.3117 57.234 23.1845 57.1928C22.7584 57.9323 22.3412 58.6562 21.914 59.3969V59.398ZM34.6188 69.2071C33.7577 68.7119 32.9635 68.2545 32.1615 67.7928C31.7243 68.4999 31.8659 69.0465 32.3623 69.5116C32.9278 70.0426 33.4699 69.9712 34.6188 69.2071Z" fill="#D95103"/>
<path d="M21.9141 59.3992C22.3413 58.6585 22.7573 57.9346 23.1845 57.1951C23.3117 57.2363 23.4043 57.2497 23.479 57.2932C29.1532 60.5726 34.8263 63.8531 40.4994 67.1369C40.7013 67.2541 40.8965 67.3846 41.085 67.524C41.6684 67.9523 41.8011 68.5636 41.4554 69.1771C41.1196 69.7727 40.4738 69.9991 39.8335 69.7392C39.6829 69.6779 39.5379 69.5987 39.3963 69.5173C33.6986 66.2312 28.0021 62.944 22.3056 59.6557C22.1851 59.5866 22.0725 59.504 21.9141 59.4003V59.3992Z" fill="white"/>
<path d="M34.62 69.2083C33.47 69.9724 32.929 70.0427 32.3635 69.5128C31.8671 69.0477 31.7254 68.5011 32.1627 67.7939C32.9658 68.2557 33.7589 68.7131 34.62 69.2083Z" fill="white"/>
</g>
<defs>
<clipPath id="clip0_1297_479">
<rect width="72" height="72" fill="white"/>
</clipPath>
</defs>
</svg>
