<svg width="194" height="83" viewBox="0 0 194 83" fill="none" xmlns="http://www.w3.org/2000/svg">
<path d="M12.0458 65.1853C12.0866 65.6828 12.1159 66.0552 12.1443 66.3997C12.4628 66.5491 12.7623 66.6922 13.1901 66.8936C12.9258 67.1576 12.7812 67.3022 12.5531 67.53C13.2239 67.5276 13.6605 68.3812 14.2929 68.2161C14.3532 68.2 14.4608 68.2696 14.494 68.3487C14.7922 69.0571 15.185 68.5898 15.5405 68.5948C15.8149 67.8838 16.3091 68.1772 16.7153 68.0932C16.8336 68.0681 17.0415 68.1307 17.0805 68.241C17.2345 68.7032 17.4962 68.6313 17.7393 68.6298C18.2067 68.6274 18.6724 68.5728 19.1379 68.581C19.4233 68.5885 19.7114 68.6691 19.9975 68.8302C19.638 68.9125 19.2819 69.0226 18.921 69.0666C18.6464 69.1006 18.4247 69.2479 18.2964 69.5909C18.1576 69.9657 17.9318 70.0608 17.682 70.1393C16.928 70.3715 16.1765 70.6071 15.4251 70.8496C15.3928 70.8612 15.3692 70.9214 15.3581 70.9392C15.4401 71.4807 15.5192 72.0049 15.6098 72.5915C16.2594 72.4467 16.9683 72.4638 17.5756 72.1146C18.3273 71.6801 19.1199 71.7502 19.8747 71.4761C20.1149 71.3909 20.295 71.4614 20.3981 71.9359C19.8201 72.4551 19.0777 72.4844 18.3676 73.1059C18.6174 73.2298 18.7188 73.3205 18.817 73.3206C19.1793 73.3184 19.5245 73.2296 19.8745 73.6117C20.0058 73.7572 20.3154 73.5859 20.5322 73.5015C20.9036 73.3594 21.2607 73.1411 21.6324 73.006C22.0917 72.8364 22.5572 72.712 23.0228 72.5876C23.1502 72.5552 23.2871 72.5923 23.4581 72.6003L23.4886 73.4751C23.3503 73.5323 23.2453 73.6058 23.1336 73.6201C22.6492 73.6719 22.1672 73.7271 21.7277 74.0635C21.6777 74.1036 21.6178 74.1302 21.5618 74.1321C20.5607 74.1182 19.6378 74.6668 18.6714 74.9099C18.1755 75.0354 18.1131 75.0585 17.651 75.6818C18.3318 76.0315 19.0439 75.6053 19.7647 76.0268C19.6309 76.2793 19.5342 76.4571 19.418 76.6775C19.9425 77.0361 20.303 76.1791 20.7676 76.4281C20.9053 77.0933 20.3983 76.7655 20.3104 77.1943C21.1751 77.3211 22.0142 77.3826 22.8566 77.3392C24.3127 77.264 25.7695 77.2062 27.2261 77.1449C27.3592 77.1403 27.5358 77.1097 27.6237 77.2148C28.0433 77.7166 28.4856 77.4639 28.9135 77.3966C29.6063 77.2887 30.2956 77.1425 30.9817 76.9755C31.3595 76.8821 31.7278 76.7157 32.1019 76.584C32.2335 76.5375 32.3622 76.4737 32.4971 76.4551C34.1368 76.2129 35.7742 75.9708 37.4144 75.7426C38.0891 75.6493 38.7741 75.6498 39.4451 75.5182C40.7871 75.2551 42.1189 74.898 43.4586 74.6349C44.1877 74.4908 44.9277 74.4615 45.6614 74.3836C46.3973 74.3021 47.1543 74.3559 47.8611 74.1114C49.0623 73.6962 50.2854 73.8419 51.4961 73.702C53.3332 73.4878 55.1695 73.2528 57.0065 73.0386C57.549 72.9743 58.0921 72.9275 58.6336 72.9051C60.2071 72.8432 61.7811 72.7953 63.3575 72.7473C63.584 72.7394 63.8318 72.6749 63.9474 73.1071C64.238 72.5909 64.8741 72.5967 65.5272 72.8879C65.6875 72.1914 66.0862 72.0937 66.5267 72.1203C68.035 72.2002 69.4854 71.6262 70.97 71.4278C71.0654 71.414 71.1785 71.3054 71.2502 71.3518C71.8817 71.7624 72.4857 71.3156 73.1001 71.3047C76.6394 71.2335 80.1756 71.0753 83.7129 70.9484C85.7723 70.8765 87.8328 70.8361 89.8911 70.7328C90.5539 70.6993 91.1633 70.8769 91.766 71.4003L91.7894 72.0729C92.326 72.5113 92.8954 72.7497 93.5134 72.5048C93.751 72.4128 93.9861 72.251 94.227 72.2531C95.5481 72.2594 96.8706 72.3074 98.1924 72.3346C99.6312 72.3647 101.072 72.3877 102.51 72.4073C103.385 72.4187 104.263 72.3776 105.117 72.8014C105.207 72.8471 105.308 72.8576 105.406 72.8611C107.096 72.9627 108.785 73.0608 110.474 73.1624C110.771 73.18 111.057 73.0792 111.323 73.5132C111.492 73.7934 111.831 73.7432 111.997 73.4094C112.159 73.0792 112.353 73.1038 112.561 73.1454C114.27 73.4906 115.982 73.4379 117.692 73.4829C117.807 73.4859 117.92 73.5272 118.034 73.5652C118.062 73.5746 118.081 73.6473 118.164 73.8014C117.809 73.9569 117.482 74.0974 117.155 74.2414C117.187 74.3589 117.2 74.4562 117.216 74.4556C118.184 74.5824 119.153 74.7405 120.121 74.8114C121.014 74.878 121.91 74.8328 122.804 74.8644C123.829 74.9019 124.858 74.695 125.874 75.1481C125.967 75.1902 126.067 75.1972 126.164 75.2043C128.047 75.3201 129.93 75.4254 131.812 75.5551C132.236 75.5857 132.661 75.693 133.085 75.7794C133.412 75.8483 133.737 75.9835 134.065 76.0069C134.572 76.0451 135.017 76.3506 135.426 76.7412C135.643 76.9499 135.843 77.0372 136.077 77.043C138.159 77.0959 140.234 77.3969 142.305 77.7784C143.053 77.9163 143.22 77.7639 143.553 76.7158C143.61 76.5359 143.676 76.3556 143.765 76.2129C144.094 75.6675 144.116 75.4155 143.853 74.7233C143.678 74.2618 143.677 74.2269 143.783 73.5846C144.015 73.5381 144.247 73.4951 144.498 73.4445C144.015 72.9868 143.595 72.5373 143.145 72.1831C142.821 71.9292 142.461 71.7359 142.102 71.6298C141.528 71.4544 140.935 71.4332 140.367 71.2332C139.709 70.9979 139.068 70.6364 138.417 70.3381C138.139 70.2117 137.857 70.1133 137.585 70.0042C137.505 69.0752 137.443 68.9518 136.814 68.7574C136.549 68.6759 136.27 68.6507 136.002 68.674C135.093 68.7581 134.256 68.1941 133.375 68.0294L133.369 67.8377C133.61 67.7874 133.848 67.6988 134.088 67.6904C136.111 67.6303 138.132 67.5912 140.154 67.5346C140.56 67.5205 140.968 67.4783 141.373 67.4119C141.491 67.3938 141.667 67.2829 141.7 67.1492C141.784 66.8008 141.968 66.8572 142.129 66.8551C143.646 66.8336 145.163 66.7736 146.68 66.8219C147.923 66.8623 149.167 67.0248 150.411 67.1559C150.758 67.1926 151.102 67.3411 151.45 67.3988C151.972 67.4818 152.501 67.4913 153.019 67.6023C153.683 67.7466 154.344 67.9294 154.985 68.27C155.254 68.4142 155.56 68.414 155.849 68.4492C156.077 68.4762 156.301 68.4125 156.456 68.8085C156.504 68.9359 156.698 68.9815 156.829 69.0048C157.662 69.1467 158.496 69.2712 159.328 69.4061C159.444 69.4231 159.595 69.3934 159.668 69.4885C160.211 70.178 160.866 70.1307 161.501 70.2202C161.785 70.2591 162.022 70.3486 162.287 70.6429C162.61 71.0016 163.074 71.1703 163.486 71.2292C164.122 71.3187 164.767 71.2334 165.41 71.2528C165.658 71.2616 165.936 71.1019 166.131 71.6011C166.182 71.7319 166.561 71.7292 166.715 71.6016C167.138 71.2449 167.589 71.1803 168.056 71.157C168.87 71.1216 169.675 71.0552 170.473 71.5473C170.845 71.7786 171.003 72.0627 171.012 72.6068C170.78 72.9185 170.54 72.8117 170.37 72.5733C170.127 72.2294 169.852 72.1797 169.56 72.1829C169.155 72.1865 168.752 72.2285 168.347 72.2147C168.198 72.2094 168.049 72.103 167.883 72.032C167.889 72.4854 168.086 72.6425 168.357 72.7483C169.196 73.0784 170.037 73.2689 170.889 73.0333C171.128 72.9692 171.354 72.8321 171.592 72.7506C171.759 72.6924 171.932 72.648 172.105 72.6454C173.194 72.6214 174.28 72.5905 175.32 72.0587C175.706 71.8603 176.165 72.0118 176.495 71.4873C176.583 71.3446 176.829 71.4198 177.004 71.3962C177.269 71.3591 177.534 71.3219 177.81 71.1936C177.41 70.5201 176.784 70.6536 176.293 70.1299C176.398 70.0425 176.476 69.9281 176.566 69.9075C177.598 69.6656 178.63 69.4411 179.663 69.2062C180.214 69.0788 180.763 68.9236 181.318 68.8135C182.07 68.6651 182.816 68.6774 183.568 69.0316C183.831 69.155 184.145 69.0324 184.435 69.0223C185.831 68.9736 187.225 68.9215 188.622 69.1763C189.297 69.2993 189.983 69.3033 190.661 69.3215C190.902 69.3271 191.141 69.2175 191.396 69.1563C191.231 68.6247 190.968 68.4768 190.671 68.2708C189.991 67.7956 189.303 67.9277 188.611 67.8402C188.035 67.7695 187.469 67.4927 186.949 67.3224C186.878 66.6793 186.81 66.0849 186.732 65.3758C186.875 65.3254 187.089 65.2203 187.307 65.1778C187.634 65.1175 187.963 65.0816 188.294 65.07C188.633 65.0582 188.919 64.8947 189.16 64.5652C189.139 64.4927 189.131 64.4057 189.108 64.3961C188.611 64.1761 188.117 63.9456 187.615 63.7537C187.371 63.6611 187.103 63.6983 186.866 63.5879C186.355 63.3475 185.842 63.2538 185.313 63.2303C184.648 63.2012 184.515 62.9476 184.519 61.918C184.111 61.6182 183.696 61.3116 183.156 60.9187C184.82 60.4454 186.402 60.4146 187.996 60.6033C188.023 60.0301 188.044 59.5791 188.068 59.1107C188.325 58.9936 188.563 58.8876 188.802 58.778C188.827 58.5503 188.849 58.3262 188.885 58.0005C187.162 57.8232 185.461 57.6488 183.763 57.4777C183.745 57.4295 183.729 57.3812 183.711 57.333C184.02 57.0012 184.329 56.6693 184.676 56.2978C184.305 55.393 183.533 55.385 183.026 54.7152C183.135 54.6242 183.308 54.5623 183.377 54.3994C183.665 53.7194 184.101 53.8193 184.514 53.9549C185.082 54.141 185.633 54.4707 186.203 54.6463C186.902 54.8592 187.612 54.9531 188.297 54.6256C188.299 54.5627 188.302 54.4998 188.305 54.4404C187.141 54.1913 185.975 53.9424 184.811 53.6898C184.808 53.662 184.802 53.6343 184.799 53.603C185.014 53.5257 185.228 53.445 185.443 53.3677C185.575 53.3212 185.751 53.3395 185.831 53.2181C186.33 52.4469 186.927 52.8099 187.505 52.9119C188.18 53.0279 188.858 53.1369 189.534 53.2319C189.659 53.2485 189.785 53.1918 189.941 53.1619C189.791 52.5599 189.372 52.7456 189.139 52.3733C189.622 51.9901 190.147 52.237 190.702 52.0606C190.516 51.7669 190.378 51.5484 190.187 51.248C190.883 51.0144 191.601 50.9753 192.137 50.2308C191.936 49.7179 191.673 49.4653 191.243 49.4768C190.883 49.4894 190.519 49.2962 190.155 49.1972C189.945 49.1417 189.735 49.0793 189.524 49.0518C188.73 48.9434 187.934 48.849 187.14 48.7406C186.694 48.6794 186.248 48.6252 185.805 48.5289C185.157 48.3875 184.51 48.2077 183.76 48.0175C184.032 47.7742 184.232 47.5963 184.449 47.4037C184.185 46.9174 183.896 46.603 183.463 46.6146C183.279 46.621 183.089 46.4741 182.904 46.3933C182.757 46.3287 182.613 46.222 182.465 46.1958C182.114 46.1312 181.747 46.2627 181.466 45.7142C181.376 45.5359 181.095 45.5875 180.911 45.4927C180.64 45.3487 180.376 45.1694 180.042 44.9612C180.396 44.6104 180.686 44.3281 181.106 43.9121C180.685 43.6965 180.409 43.5526 180.087 43.3858C180.245 43.0279 180.471 43.1212 180.661 43.0832C181.007 43.0188 181.407 43.2107 181.64 42.6023C181.681 42.4962 181.896 42.5027 182.026 42.5261C182.414 42.5893 182.798 42.6876 183.184 42.7683C183.759 42.8879 184.333 42.983 184.896 42.8552C184.959 42.3679 184.875 42.1126 184.612 41.9369C184.272 41.7149 183.936 41.4579 183.615 41.1725C183.383 40.9677 183.155 40.7209 182.972 40.4307C182.791 40.1439 182.608 39.9932 182.349 39.8697C181.814 39.6127 181.301 39.2328 180.805 38.8243C180.651 38.6971 180.584 38.3226 180.458 38.0094C179.73 37.637 178.942 37.4167 178.114 37.3479C177.411 37.2887 176.712 36.9048 176.012 36.6605C175.86 36.6065 175.709 36.4966 175.559 36.4913C174.609 36.4477 173.723 36.0005 172.851 35.4587C172.727 35.3827 172.597 35.3384 172.388 35.2376C172.991 34.8327 173.665 35.2628 174.254 34.5164C173.575 34.3656 173.002 34.3646 172.442 34.461C171.887 34.5571 171.343 34.775 170.752 34.7886C170.936 34.6287 171.117 34.4688 171.301 34.3089C171.299 34.2531 171.297 34.1938 171.295 34.1381C170.07 33.8877 168.844 33.6408 167.619 33.3904C167.844 32.7859 168 32.7141 167.34 32.2032C167.528 32.1618 167.714 32.089 167.903 32.0824C168.912 32.0367 169.923 32.0154 170.932 31.9697C171.142 31.9624 171.347 31.8855 171.572 31.8392C171.596 31.5104 171.614 31.234 171.638 30.8947C172.194 30.823 172.743 30.7515 173.323 30.6789C173.264 30.5309 173.251 30.4441 173.225 30.438C172.624 30.2322 172.024 29.967 171.416 29.8486C170.821 29.7333 170.215 29.7928 169.632 29.4397C169.489 29.3505 169.262 29.3549 169.135 29.4675C168.797 29.7585 168.436 29.8025 168.068 29.763C167.001 29.6537 165.93 29.5375 164.863 29.3758C164.567 29.3303 164.279 29.11 163.979 28.9635C164.023 28.6165 164.101 28.3625 164.07 28.1368C164.042 27.9423 163.894 27.78 163.801 27.6053C163.875 27.4491 163.934 27.318 164.047 27.0802C162.911 26.8791 161.848 27.1813 160.792 27.0437C159.728 26.9029 158.672 26.6047 157.662 26.3852C157.877 26.1858 158.353 26.0191 158.881 26.0112C160.124 25.9957 161.369 25.9662 162.613 25.9822C163.018 25.9855 163.422 26.1284 163.826 26.1771C164.39 26.2447 164.953 26.3228 165.517 26.331C166.455 26.3471 167.398 26.377 168.293 26.8309C168.986 27.1801 169.654 27.2336 170.354 27.1324C170.717 27.0813 171.088 27.1382 171.448 27.0802C171.597 27.0541 171.74 26.8711 171.864 26.7203C172.027 26.5192 172.215 26.2683 172.062 25.9177C171.912 25.574 171.801 25.1312 171.427 25.1233C171.23 25.1162 171.02 24.9909 170.835 24.8543C170.607 24.6808 170.404 24.5483 170.237 24.8473C170.3 25.1103 170.357 25.3526 170.433 25.664L168.741 25.723C168.609 25.4449 168.466 25.1429 168.307 24.8064C168.745 24.505 169.12 24.4082 169.477 24.9959C169.643 24.8575 169.802 24.7229 169.961 24.5882C169.934 23.9331 169.539 24.0132 169.316 23.7941C169.033 23.5179 168.767 23.5935 168.577 24.0537C168.5 24.2414 168.364 24.3787 168.253 24.5361C168.05 24.8259 167.755 24.8152 167.631 24.5369C167.418 24.0593 167.156 24.1173 166.87 24.1168C166.775 24.1201 166.68 24.092 166.577 24.0781C166.646 23.657 166.71 23.2709 166.795 22.755C166.53 22.7328 166.345 22.7253 166.162 22.6968C165.875 22.651 165.59 22.6574 165.344 22.3135C165.234 22.1604 165.023 22.1468 164.853 22.1108C164.629 22.0663 164.4 22.0603 164.14 22.0345C164.714 20.7931 165.539 21.197 166.273 21.2691C167.045 21.3469 167.121 21.3687 167.607 20.3711C167.491 20.1309 167.37 19.8804 167.222 19.5715C166.439 19.6547 165.636 19.7699 164.824 19.4772C164.866 18.9383 165.226 19.0584 165.355 18.8131C164.732 17.9799 163.933 17.917 163.182 17.6292C162.945 17.5362 162.711 17.4118 162.478 17.3013L162.486 17.1021C162.898 17.0598 163.307 16.9897 163.72 16.9822C165.409 16.9477 167.102 16.9411 168.791 16.8996C169.092 16.8891 169.386 16.7602 169.694 16.5156C169.582 16.4637 169.469 16.3734 169.356 16.3669C168.986 16.3414 168.617 16.3403 168.25 16.3462C167.939 16.35 167.649 16.3357 167.348 16.0984C167.12 15.9215 166.821 15.9284 166.554 15.9028C166 15.8523 165.445 15.8368 164.792 15.8003C165.027 15.3768 165.242 15.2891 165.48 15.2947C166.395 15.3151 167.338 15.1252 168.215 15.4191C169.31 15.7857 170.373 15.623 171.45 15.6762C171.696 15.6885 171.947 15.6344 172.133 16.0118C172.183 16.1112 172.351 16.1054 172.466 16.1118C172.778 16.1358 173.089 16.132 173.401 16.1595C173.919 16.2042 174.427 16.176 174.952 16.3985C175.369 16.5758 175.847 16.4056 176.382 16.387C176.265 16.248 176.229 16.1655 176.185 16.1531C175.925 16.0958 175.72 16.0262 175.478 15.7241C175.177 15.3507 174.701 15.2347 174.288 15.134C173.001 14.8195 171.71 14.533 170.418 14.2884C169.14 14.0469 167.861 13.8402 166.579 13.6721C165.28 13.5011 163.975 13.4349 162.678 13.2359C161.728 13.091 160.784 12.8763 159.827 12.9271C159.654 12.9331 159.451 12.9402 159.311 12.816C158.898 12.45 158.488 12.5411 158.064 12.6501C157.892 12.6945 157.715 12.7111 157.542 12.7067C156.259 12.6572 154.973 12.6428 153.693 12.5269C152.9 12.4569 152.11 12.2087 151.318 12.0758C150.429 11.9254 149.538 11.775 148.647 11.6945C147.737 11.6145 146.825 11.6777 145.917 11.5803C145.339 11.5167 144.767 11.2714 144.192 11.1171C143.982 11.0616 143.768 11.0272 143.556 10.9822C143.247 10.9197 142.937 10.8677 142.628 10.7947C142.15 10.6858 141.669 10.5804 141.192 10.447C140.699 10.3107 140.211 10.1218 139.717 9.98549C138.703 9.71032 137.685 9.43523 136.665 9.19864C136.029 9.05334 135.386 8.99898 134.748 8.8677C133.957 8.70686 133.171 8.49001 132.377 8.32926C131.337 8.1178 130.295 7.9378 129.252 7.74036C129.078 7.70805 128.892 7.71805 128.732 7.62592C127.92 7.15173 127.082 7.25076 126.25 7.25885C126.031 7.26302 125.805 7.42095 125.599 7.56073C125.394 7.7005 125.211 7.90576 125.016 8.08007C124.98 8.76996 125.304 9.34724 125.989 9.81189C125.726 9.86989 125.462 9.99427 125.202 9.97543C124.25 9.90743 123.3 9.79752 122.351 9.69101C121.457 9.58961 120.564 9.45675 119.67 9.3658C117.514 9.1444 115.361 8.80426 113.198 8.85878C112.815 8.87214 112.426 8.70426 112.04 8.64094C111.539 8.55722 111.037 8.43515 110.536 8.42122C108.863 8.37839 107.191 8.36692 105.517 8.36251C105.209 8.3628 104.901 8.4538 104.594 8.50638C104.153 8.57762 103.71 8.70123 103.267 8.7167C102.004 8.76077 100.74 8.78044 99.4746 8.77223C99.1495 8.76961 98.824 8.62045 98.4991 8.55501C98.1531 8.48682 97.806 8.38726 97.4603 8.39583C95.4584 8.44125 93.4556 8.52857 91.454 8.58095C90.055 8.61929 88.654 8.60186 87.2555 8.65414C85.1964 8.73295 83.1386 8.8536 81.0802 8.95332C80.7931 8.96683 80.5054 9.02921 80.2563 8.65753C80.1799 8.54504 79.9925 8.53413 79.8673 8.56293C77.8545 9.03445 75.8092 9.03951 73.7776 9.2395C72.9877 9.31591 72.2103 9.68152 71.421 9.70557C69.6834 9.75571 67.9837 10.1535 66.2713 10.454C66.1551 10.4755 66.0417 10.5074 65.9251 10.515C63.0561 10.7686 60.1889 11.0047 57.3206 11.2793C55.8294 11.422 54.3427 11.6274 52.8551 11.8049C52.6223 11.834 52.3924 11.8769 52.1591 11.892C50.529 12.0047 48.9001 12.0895 47.2709 12.2301C46.6136 12.2844 45.9648 12.4501 45.3121 12.5706C45.2354 12.5837 45.1621 12.6282 45.0852 12.6343C42.8572 12.8342 40.6828 13.6289 38.4324 13.5888C37.7611 13.5773 37.0921 13.8345 36.4206 13.9521C35.9023 14.04 35.38 14.1454 34.8593 14.1636C33.9417 14.1956 33.0481 14.3803 32.1466 14.6072C30.8328 14.9427 29.5031 15.16 28.1795 15.4156C27.7569 15.4966 27.3334 15.5533 26.8939 15.7536C27.0452 15.8041 27.1968 15.8616 27.3503 15.9052C28.1298 16.1362 28.9291 16.5305 29.7049 16.2522C30.8455 15.8425 32.0313 15.9268 33.1677 15.5312C33.3826 15.4574 33.5877 15.3072 33.8186 15.6271C33.9143 15.7564 34.1603 15.706 34.3245 15.6549C36.7512 14.9177 39.2299 15.072 41.6959 14.9929C41.955 14.9839 42.2113 14.8249 42.4649 14.7218C42.5571 14.6837 42.6376 14.5797 42.7279 14.5556C43.6113 14.3468 44.4968 14.3299 45.3947 14.6719C45.2857 14.6967 45.1745 14.725 45.0653 14.7462C44.9492 14.7677 44.8325 14.7718 44.7188 14.7967C43.972 14.9693 43.2318 15.1941 42.4807 15.3075C41.4202 15.4666 40.3519 15.5353 39.2905 15.6701C38.9669 15.7093 38.6492 15.8495 38.3268 15.9235C37.9465 16.0101 37.5636 16.0932 37.1773 16.1416C36.1135 16.2729 35.0514 16.3867 33.9874 16.5111C33.9129 16.5207 33.8393 16.5547 33.7672 16.7002C34.4646 16.7213 35.1604 16.7633 35.8571 16.7634C36.4602 16.7633 37.0618 16.7179 37.6643 16.7004C38.1782 16.6894 38.6614 16.533 39.1222 16.2063C39.3891 16.0156 39.6433 15.8636 39.8987 16.3502C39.9789 16.5045 40.223 16.5309 40.3863 16.5217C41.2586 16.4633 42.1292 16.3562 43.0016 16.3013C43.2839 16.2845 43.572 16.3687 43.8587 16.411C44.2206 16.4647 44.5871 16.5845 44.9465 16.565C45.6628 16.526 46.3766 16.4139 47.0936 16.3261C48.0968 16.2003 49.0997 16.0676 50.1027 15.9349C50.8566 15.8354 51.6078 15.7219 52.3622 15.6363C53.3287 15.5293 54.3022 15.4918 55.2675 15.35C57.2118 15.0623 59.1543 14.7223 61.0979 14.4137C61.5211 14.3466 61.9503 14.3177 62.3771 14.2889C62.489 14.2815 62.6591 14.2651 62.7091 14.3575C62.9715 14.8439 63.3096 14.6855 63.628 14.6989C64.3094 14.7309 64.9882 14.7526 65.6697 14.7882C65.7775 14.7949 65.885 14.8609 65.9938 14.899L65.9932 15.0805C64.2683 15.3605 62.5432 15.6335 60.8209 15.9204C60.1678 16.0305 59.5184 16.1787 58.8655 16.2923C58.3472 16.3801 57.8234 16.4438 57.3044 16.5107C56.0874 16.6718 54.8724 16.8259 53.6555 16.9905C53.0179 17.0755 52.3834 17.2477 51.7457 17.263C49.8956 17.3031 48.0649 17.5659 46.2367 17.8984C45.4259 18.0453 44.6365 18.2682 43.9108 18.8414C43.7651 18.9547 43.5773 18.9996 43.4067 19.0021C42.2362 19.022 41.0961 19.313 39.9486 19.5903C38.9981 19.8189 38.0146 19.773 37.0462 19.8905C36.1965 19.9934 35.3534 20.152 34.5047 20.2828C34.0233 20.3554 33.5395 20.4246 33.0578 20.4903C32.1899 20.6078 31.3221 20.7253 30.4563 20.8358C29.2203 20.9906 27.9858 21.1872 26.7478 21.2827C25.5447 21.377 24.3479 21.4467 23.1563 21.7325C22.2429 21.9528 21.3005 21.9473 20.3712 22.046C20.1033 22.0728 19.8334 22.1102 19.5539 22.2735C19.6439 22.3087 19.7324 22.3649 19.8215 22.3723C23.6812 22.7088 27.5107 22.1773 31.355 22.0048C31.7215 21.9886 32.0854 21.8991 32.518 21.8352C32.3865 22.0212 32.293 22.1536 32.1437 22.3647C32.4762 22.5136 32.7397 22.63 33.1316 22.8048C32.9318 22.9758 32.8362 23.1152 32.7315 23.1293C32.4245 23.1749 32.1113 23.1789 31.8006 23.1862C30.147 23.23 28.4937 23.2807 26.8705 23.7281C26.5417 23.8198 26.1013 23.6607 25.9434 24.3607C25.9251 24.4381 25.731 24.4379 25.6167 24.4454C24.9566 24.4858 24.2975 24.5577 23.6355 24.5459C22.4986 24.5262 21.4126 24.8921 20.2202 25.2897C20.8921 25.7862 21.5364 26.0289 22.1559 26.4958C21.84 26.5557 21.5232 26.654 21.2059 26.6721C20.198 26.7316 19.2006 26.8223 18.2061 27.1292C17.3618 27.3889 16.4686 27.3154 15.5974 27.4051C15.241 27.442 14.8491 27.3335 14.5966 27.8692C14.5618 27.9437 14.4566 27.9439 14.3828 27.9709C13.1295 28.4334 11.8792 28.9132 10.6227 29.3514C10.23 29.4872 9.82038 29.5399 9.4179 29.5958C8.78277 29.6843 8.1442 29.7414 7.45955 29.8177C7.60278 30.3047 7.9167 30.1891 8.10169 30.399C8.16758 31.0143 8.00708 31.3724 7.59068 31.4986C7.28993 31.5893 7.00169 31.7704 6.70131 31.8716C6.28528 32.0082 5.88582 32.1513 5.5455 32.5819C5.39993 32.7649 5.16054 32.8047 4.95665 32.8572C4.52354 32.9735 4.07657 32.9612 3.69361 33.3758C3.55174 33.5308 3.32454 33.5178 3.13502 33.5803C2.97327 33.6348 2.80907 33.6859 2.52 33.7762C3.00381 34.1083 3.37754 34.0324 3.74756 34.0509C3.96544 34.0643 4.19749 33.948 4.37062 34.3537C4.4341 34.4981 4.6945 34.5239 4.85501 34.5008C5.25958 34.4379 5.65768 34.3228 6.05822 34.2111C6.46577 34.0992 6.82492 34.2088 7.14437 34.7211C6.90499 35.3645 6.44198 35.2271 6.08308 35.3932C5.72185 35.5594 5.34637 35.6527 4.88892 35.8083C5.80764 36.1426 6.61272 36.4356 7.42013 36.7284C7.41777 36.7948 7.41761 36.8577 7.41525 36.924C6.56849 37.0443 5.72175 37.1646 4.875 37.2848C4.87178 37.3268 4.8709 37.3687 4.86781 37.4142C5.46579 37.7353 6.06366 38.053 6.65932 38.3742C6.66138 38.4334 6.66345 38.4927 6.66306 38.5485C5.44242 38.8075 4.26197 39.3476 2.90773 39.3286C3.0746 39.6892 3.16831 39.8953 3.27968 40.1392C3.38862 39.9783 3.48428 39.8389 3.58449 39.6958C3.86373 40.2619 3.86445 40.2828 4.29235 40.2853C4.83712 40.2872 5.38031 40.2438 5.92447 40.2283C6.13695 40.2209 6.34832 40.2485 6.66684 40.2653C6.5322 40.4933 6.46751 40.6491 6.37518 40.75C5.44465 41.7526 4.35619 42.1151 3.23179 42.3183C2.92971 42.3707 2.61351 42.3539 2.32689 42.7826C2.49092 42.8606 2.60923 42.9682 2.72352 42.9607C3.42119 42.9224 4.12154 42.8945 4.81492 42.8005C5.8572 42.656 6.89276 42.4523 7.93432 42.2869C8.18073 42.2469 8.43153 42.266 8.71406 42.2562C8.74477 42.6006 8.76731 42.8441 8.78959 43.0806C8.71743 43.1564 8.67805 43.2345 8.62705 43.2468C7.67996 43.5066 6.73374 43.7909 5.7804 44.0056C4.69028 44.253 3.59281 44.4239 2.50207 44.6539C2.09601 44.7414 1.65446 44.7498 1.35008 45.3397C1.78523 45.6839 2.18193 45.9981 2.58096 46.3122C2.55576 46.662 2.52733 47.0539 2.49323 47.5506C2.38665 47.645 2.21198 47.7977 1.94191 48.0304C2.14427 48.135 2.25791 48.2428 2.36765 48.2389C2.81362 48.2234 3.25862 48.1799 3.7062 48.1434C3.80415 48.1365 3.89903 48.1087 3.99464 48.1019C4.7739 48.0573 5.06895 48.7414 4.72951 49.8001C4.70638 49.8742 4.66653 49.9384 4.584 50.1193C4.87081 50.1651 5.10967 50.244 5.3455 50.2358C5.84985 50.2182 6.30436 50.3803 6.70983 50.8791C6.82456 51.0182 6.99217 51.0647 7.13728 51.1364C7.3179 51.2208 7.50024 51.2877 7.73026 51.3809C7.13633 51.7122 6.5707 51.9169 6.08932 52.3245C5.47406 52.8485 4.82273 52.8747 4.15039 52.9016C3.7838 52.9144 3.7843 52.9284 3.20088 53.7618C3.37125 53.9548 3.52179 54.2496 3.69664 54.3028C4.52557 54.5426 5.35723 55.0615 6.20453 54.4875C6.33925 54.3956 6.50724 54.3862 6.66134 54.3809C7.74918 54.3359 8.83726 54.298 9.92571 54.2705C10.0938 54.2646 10.2625 54.3425 10.4398 54.4654C9.46666 54.782 8.43735 54.7621 7.53625 55.6031C7.66289 55.7487 7.80182 55.9114 7.96016 56.0943C7.76691 56.5861 7.43371 56.685 7.15368 56.9006C7.00113 57.0176 6.82094 57.0797 6.69075 57.2343C6.41474 57.565 6.46427 57.9122 6.69159 58.33C7.00143 58.902 7.37338 58.9763 7.81848 59.0026C8.45565 59.0397 9.09288 59.2792 9.7266 59.0163C9.77957 58.9935 9.86559 58.98 9.89753 59.0243C10.4362 59.7907 11.076 59.4333 11.6666 59.4092C12.2526 59.3853 12.7835 59.5273 13.3297 59.9724C13.1056 60.4513 12.7782 60.6477 12.4326 60.7923C11.8035 61.055 11.1747 61.3247 10.5398 61.5528C10.2581 61.6533 10.1218 61.9024 10.0456 62.2644C10.4126 63.1345 10.9286 63.5178 11.6093 63.5953C12.1797 63.6626 12.7427 63.9186 13.4303 64.1285C12.9415 64.5922 12.6665 65.2194 12.059 65.1604L12.0458 65.1853ZM166.463 24.623C166.355 24.6791 166.253 24.7804 166.155 24.7699C165.692 24.7232 165.229 24.6556 164.768 24.5705C164.441 24.5086 164.117 24.3349 163.794 24.3322C163.044 24.3235 162.344 23.9676 161.642 23.6222C161.426 23.5146 161.225 23.3296 160.916 23.1066C161.322 22.8168 161.644 22.5892 161.876 22.424C162.173 22.6126 162.374 22.7556 162.582 22.8705C162.801 22.9955 163.037 23.0605 163.246 23.2138C163.733 23.5771 164.239 23.734 164.771 23.7154C165.364 23.6947 165.87 24.197 166.427 24.4044C166.434 24.4042 166.436 24.4565 166.463 24.6195L166.463 24.623ZM161.444 22.0832C160.665 22.4663 159.658 22.484 159.015 22.154C159.511 21.6411 160.604 21.5891 161.444 22.0832ZM10.7047 33.714C10.6974 33.6375 10.6925 33.5644 10.6852 33.4879C11.2197 33.2633 11.7565 33.3039 12.2976 33.47L12.3042 33.6582L10.7047 33.714ZM181.836 54.7149C182.164 54.4033 182.404 54.5101 182.695 54.7338C182.406 55.023 182.163 55.0978 181.836 54.7149ZM127.305 74.491C127.302 74.4108 127.297 74.3342 127.292 74.2542C127.578 74.2791 127.862 74.3006 128.148 74.3255C128.147 74.3709 128.147 74.4163 128.146 74.4617L127.305 74.491ZM160.274 17.5038C160.276 17.4409 160.277 17.3816 160.279 17.3187L160.723 17.3032L160.728 17.4426C160.576 17.4618 160.425 17.4811 160.272 17.5004L160.274 17.5038ZM184.087 64.491C184.021 64.263 183.961 64.1499 183.972 64.0623C183.987 63.9536 184.061 63.8638 184.111 63.7678C184.158 63.8429 184.233 63.9136 184.243 63.997C184.253 64.0734 184.193 64.1697 184.087 64.491ZM109.401 71.291C109.403 71.3503 109.41 71.4094 109.412 71.4721L108.828 71.4925C108.827 71.4541 108.825 71.4158 108.822 71.3775C109.015 71.3499 109.208 71.3222 109.401 71.2945L109.401 71.291ZM33.6679 22.9675L33.2616 22.9817C33.4102 22.6171 33.5273 22.6235 33.6679 22.9675ZM11.4471 35.6946C11.453 35.663 11.4588 35.6279 11.4647 35.5963C11.5354 35.6113 11.6037 35.6263 11.6742 35.6378C11.6725 35.6553 11.6707 35.6694 11.6689 35.6869L11.4495 35.6945L11.4471 35.6946Z" fill="#D95103"/>
<path d="M95.6967 4.61881C95.3636 3.64637 94.994 3.50572 94.4971 4.07441C94.3887 3.98048 94.2851 3.82706 94.1721 3.80309C93.5152 3.66898 92.8557 3.46167 92.2013 3.46705C89.3452 3.48643 86.4926 3.60688 83.6481 3.95737C81.8137 4.18189 79.9625 4.19064 78.1243 4.36992C77.1014 4.46842 76.091 4.72352 75.0732 4.89861C74.727 4.95954 74.3803 5.00653 74.0329 5.03261C72.4449 5.14734 70.8534 5.23077 69.2661 5.36641C68.0867 5.46688 66.9059 5.59531 65.7315 5.77238C65.1176 5.86707 64.5151 6.087 63.9116 6.27556C63.7751 6.3187 63.6561 6.45895 63.4124 6.64193C63.6383 6.7527 63.7373 6.84346 63.8306 6.83672C64.9159 6.7849 66.0112 6.81997 67.0816 6.61163C67.5135 6.52677 67.9427 6.23263 68.4001 6.276C68.6394 6.29906 68.876 6.44783 69.1146 6.51977C69.3036 6.57599 69.4975 6.63902 69.6868 6.6359C71.1609 6.60542 72.6353 6.58538 74.1077 6.5061C74.5744 6.48284 75.078 6.57694 75.49 6.12288C75.5035 6.10845 75.5334 6.09345 75.5454 6.1035C75.9397 6.48406 76.2833 6.01145 76.6567 5.99493C79.6443 5.8593 82.6334 5.6957 85.6205 5.54612C87.5225 5.45185 89.426 5.3994 91.3266 5.26679C92.08 5.21608 92.8225 4.99127 93.5706 4.85699C93.8564 4.80515 94.1479 4.78451 94.4367 4.7535C94.8489 4.70771 95.259 4.66898 95.6945 4.62238L95.6967 4.61881Z" fill="#D95103"/>
<path d="M120.214 7.46936C120.375 6.97522 120.67 7.05566 120.987 7.1737C121.513 7.37171 122.04 7.60109 122.629 7.52471L122.6 6.68823C122.167 6.22523 121.504 6.57291 121.264 5.78566C121 5.74251 120.796 5.71126 120.593 5.67295C120.4 5.63781 120.209 5.56773 120.016 5.55349C119.532 5.52505 119.445 5.59088 119.033 6.18103C118.949 5.69893 118.735 5.55283 118.425 5.56715C118.175 5.57586 117.919 5.52897 117.671 5.45388C116.671 5.15374 115.665 5.05973 114.652 5.04272C114.343 5.03605 114.035 4.90722 113.725 4.87964C112.853 4.79841 111.979 4.75211 111.105 4.67445C110.096 4.58401 109.087 4.4168 108.079 4.3822C106.876 4.34042 105.671 4.39291 104.468 4.42092C104.087 4.43071 103.793 4.64337 103.733 5.39225C104.047 5.48249 104.361 5.57273 104.677 5.66289L104.702 5.77718C104.247 5.92567 103.789 6.07424 103.334 6.21925C103.336 6.28198 103.338 6.34472 103.34 6.40745C103.616 6.45369 103.89 6.54532 104.163 6.53579C104.96 6.51149 105.754 6.44538 106.55 6.40714C107.015 6.38396 107.482 6.38858 107.947 6.36192C108.838 6.30989 109.729 6.19504 110.622 6.19878C111.726 6.20564 112.833 6.31358 113.939 6.36575C114.316 6.384 114.695 6.33935 115.073 6.38201C115.458 6.42093 115.856 6.44193 116.217 6.61776C116.826 6.91407 117.429 7.03263 118.059 7.00367C118.524 6.98746 118.991 7.04096 119.454 7.1225C119.696 7.16639 119.933 7.32911 120.216 7.45883L120.214 7.46936Z" fill="#D95103"/>
<path d="M29.7417 17.235C29.2644 17.0876 28.7994 17.0934 28.3339 17.2841C28.0042 17.4143 27.661 17.4925 27.3189 17.5359C26.2414 17.6747 25.1625 17.7716 24.0852 17.9139C23.7641 17.9565 23.4617 18.1311 23.1614 18.5708C23.5517 18.6339 23.8368 18.8333 24.0987 18.3008C24.1927 18.1125 24.5337 18.1739 24.7625 18.1659C25.8275 18.1393 26.8934 18.137 27.9582 18.1068C28.3411 18.0934 28.7096 18.0701 29.0208 17.6091C29.1831 17.3696 29.4957 17.3518 29.7417 17.235Z" fill="#D95103"/>
<path d="M56.3168 7.41987C56.8223 7.77213 59.6462 7.712 60.3847 7.37217C60.3116 7.01878 60.1058 6.94919 59.9242 6.96949C59.356 7.03118 58.7845 6.93247 58.2141 7.06404C57.6622 7.19147 57.0943 7.19384 56.5355 7.2587C56.4843 7.26397 56.4398 7.32834 56.3168 7.41987Z" fill="#D95103"/>
<path d="M177.537 74.8777C177.555 74.5944 177.569 74.3775 177.586 74.0803C177.39 74.0871 177.184 74.0001 177.104 74.1146C176.691 74.6943 176.157 74.4547 175.68 74.59C175.463 74.6534 175.244 74.6959 175.035 74.8463C175.878 75.2426 176.703 75.1719 177.537 74.8777Z" fill="#D95103"/>
<path d="M98.5912 3.68383L97.7624 3.71274C97.7176 3.96904 97.6746 4.21133 97.614 4.55193C97.5775 4.24263 97.5512 4.0237 97.5145 3.71092C97.2095 3.74599 96.9115 3.78081 96.6089 3.81579C96.728 4.08034 96.842 4.33459 97.0019 4.69542C97.6514 5.15433 98.147 4.68688 98.5913 3.68731L98.5912 3.68383Z" fill="#D95103"/>
<path d="M60.9527 6.75213C61.6436 7.19214 62.3381 7.06323 63.0272 6.98335C63.1017 6.97378 63.1865 6.79285 63.217 6.66267C63.2271 6.61695 63.0936 6.40874 63.0306 6.41094C62.3297 6.42143 61.6147 6.29632 60.9527 6.75213Z" fill="#D95103"/>
<path d="M166.91 28.1842C167.719 28.3374 168.529 28.4872 169.336 28.6405C169.384 28.2131 169.245 27.9946 169.04 27.9494C168.315 27.7932 167.593 27.801 166.91 28.1842Z" fill="#D95103"/>
<path d="M31.1801 17.2476C31.879 17.5129 32.4936 17.4426 33.1697 17.1887C32.7362 16.6908 31.7114 16.7301 31.1801 17.2476Z" fill="#D95103"/>
<path d="M102.705 6.2029C101.894 6.08461 101.08 6.27353 100.27 6.17267C100.162 6.15899 100.048 6.28861 99.8688 6.38907C100 6.53106 100.063 6.65101 100.119 6.64905C100.982 6.60149 101.844 6.5365 102.707 6.475C102.706 6.3843 102.706 6.29359 102.705 6.20638L102.705 6.2029Z" fill="#D95103"/>
<path d="M99.3239 3.90601C99.0561 4.00259 98.7907 4.09909 98.4583 4.21887C98.7002 4.5873 98.8803 4.86019 99.0827 5.16719C99.3413 5.14072 99.616 5.1102 99.9677 5.0735C99.7083 4.60448 99.5138 4.25532 99.3216 3.90609L99.3239 3.90601Z" fill="#D95103"/>
<path d="M24.1522 16.2296C24.3115 16.5765 24.3953 16.7655 24.5015 16.9956C25.0525 16.1074 25.8158 16.7473 26.4497 16.3553C26.2725 15.9672 26.0198 15.8922 25.7558 16.0306C25.4161 16.2099 25.0895 16.2283 24.7344 16.1011C24.5854 16.0504 24.4117 16.1647 24.1522 16.2296Z" fill="#D95103"/>
<path d="M170.4 16.3444C170.391 16.6102 170.382 16.827 170.372 17.1313C170.58 17.1415 170.756 17.1493 170.939 17.1569C170.905 16.6761 170.725 16.4052 170.4 16.3444Z" fill="#D95103"/>
<path d="M176.551 73.0172C176.33 73.0459 176.108 73.078 175.806 73.12C176.222 73.6469 176.317 73.6401 176.551 73.0172Z" fill="#D95103"/>
<path d="M187.168 66.648L187.407 66.6397C187.41 66.6047 187.412 66.5733 187.415 66.5383C187.335 66.5132 187.255 66.4846 187.175 66.4595C187.173 66.5224 187.17 66.5852 187.165 66.6481L187.168 66.648Z" fill="#D95103"/>
<path d="M99.3208 3.90608C99.5037 3.91716 99.6866 3.92823 99.8694 3.93582C99.8682 3.90095 99.8669 3.86609 99.8657 3.83122C99.6864 3.85493 99.5048 3.88221 99.3232 3.906L99.3208 3.90608Z" fill="#D95103"/>
<path d="M166.463 24.623C166.436 24.4599 166.437 24.4111 166.427 24.4079C165.871 24.2005 165.365 23.7017 164.772 23.7189C164.239 23.7375 163.734 23.5771 163.247 23.2172C163.038 23.0605 162.802 22.9955 162.582 22.874C162.375 22.7556 162.176 22.616 161.877 22.4275C161.642 22.5927 161.323 22.8202 160.917 23.1101C161.226 23.3331 161.427 23.5215 161.643 23.6256C162.345 23.9711 163.044 24.327 163.795 24.3357C164.118 24.3384 164.442 24.5121 164.769 24.5739C165.23 24.6591 165.693 24.7267 166.155 24.7733C166.253 24.7839 166.357 24.679 166.463 24.6265L166.463 24.623Z" fill="white"/>
<path d="M161.444 22.0832C160.601 21.5891 159.512 21.6411 159.015 22.1539C159.66 22.4839 160.665 22.4663 161.444 22.0832Z" fill="white"/>
<path d="M10.705 33.7105L12.302 33.6548L12.2954 33.4666C11.7567 33.3004 11.2176 33.2599 10.6831 33.4844C10.6905 33.5609 10.6954 33.634 10.7027 33.7106L10.705 33.7105Z" fill="white"/>
<path d="M181.836 54.715C182.163 55.1018 182.403 55.0236 182.695 54.734C182.404 54.5101 182.166 54.4031 181.836 54.715Z" fill="white"/>
<path d="M127.305 74.4877L128.146 74.4584C128.147 74.4129 128.147 74.3675 128.148 74.3221C127.862 74.2971 127.578 74.2756 127.292 74.2507C127.294 74.3309 127.299 74.4076 127.305 74.4877Z" fill="white"/>
<path d="M160.274 17.5039C160.425 17.4847 160.579 17.4653 160.73 17.4461L160.726 17.3065L160.279 17.3221C160.277 17.3851 160.276 17.4445 160.274 17.5074L160.274 17.5039Z" fill="white"/>
<path d="M184.088 64.4881C184.193 64.1666 184.253 64.0737 184.243 63.9937C184.233 63.9102 184.158 63.8395 184.111 63.7643C184.063 63.8603 183.987 63.9502 183.973 64.059C183.962 64.1467 184.021 64.2599 184.088 64.4881Z" fill="white"/>
<path d="M109.401 71.2876C109.207 71.3153 109.014 71.343 108.821 71.3707C108.822 71.409 108.824 71.4474 108.827 71.4857L109.412 71.4653C109.41 71.406 109.403 71.3469 109.401 71.2841L109.401 71.2876Z" fill="white"/>
<path d="M33.6704 22.9636C33.5323 22.6199 33.413 22.6136 33.2646 22.9778L33.6704 22.9636Z" fill="white"/>
<path d="M11.4484 35.6944L11.6668 35.6867C11.6668 35.6867 11.6704 35.6553 11.6721 35.6378C11.6018 35.6228 11.5338 35.6078 11.4636 35.5963C11.4577 35.6278 11.4519 35.6629 11.4461 35.6944L11.4484 35.6944Z" fill="white"/>
</svg>
