<svg width="40" height="40" viewBox="0 0 40 40" fill="none" xmlns="http://www.w3.org/2000/svg">
<path d="M0 23.7012C0.112305 23.0391 0.195312 22.3702 0.341797 21.7159C0.842773 19.4922 1.83301 17.4883 3.17383 15.6553C5.21183 12.856 7.91402 10.6076 11.0371 9.11234C11.3682 8.95121 11.5752 8.75297 11.6582 8.38773C11.7471 8.0493 11.8567 7.71664 11.9863 7.39164C12.6357 5.60941 14.4473 4.67191 16.2832 5.16312C16.3809 5.18949 16.4785 5.20707 16.5957 5.23148C17.1816 3.62308 18.292 2.69828 20.0186 2.70512C21.7275 2.71195 22.8232 3.63676 23.377 5.15824C23.9629 5.12308 24.5215 5.01859 25.0635 5.07328C26.3955 5.20609 27.3662 5.90531 27.9082 7.13871C28.0911 7.58241 28.2483 8.03629 28.3789 8.49808C28.4114 8.62158 28.4718 8.73598 28.5554 8.83248C28.6391 8.92898 28.7437 9.00501 28.8613 9.05473C31.1797 10.1586 33.2769 11.6767 35.0498 13.5342C37.4375 16.0401 39.1514 18.917 39.7959 22.3584C39.8799 22.8018 39.9326 23.252 40 23.6983V25.4141C39.97 25.5127 39.9465 25.6132 39.9297 25.7149C39.798 27.0886 39.3794 28.4193 38.7012 29.6211C37.2314 32.2266 34.9453 33.8838 32.2783 35.084C29.0039 36.5586 25.5273 37.1573 21.9717 37.3301C18.9443 37.4737 15.9355 37.3243 12.957 36.7217C10.0625 36.1358 7.31055 35.1905 4.87207 33.4844C2.55371 31.8623 0.914063 29.7471 0.274414 26.9414C0.15918 26.4414 0.0898438 25.9268 0 25.417V23.7012ZM19.9092 35.0586C22.2852 35.0401 24.5518 34.8565 26.7871 34.375C29.3262 33.8331 31.7373 32.9971 33.8906 31.4942C36.9707 29.3457 38.2803 25.8858 37.3926 22.2334C36.7725 19.6807 35.4893 17.502 33.749 15.5713C31.9592 13.5818 29.7677 11.9945 27.3193 10.9141C27.0841 10.8207 26.874 10.6734 26.706 10.4842C26.5379 10.2949 26.4165 10.0689 26.3516 9.82426C26.2041 9.31351 26.0264 8.81156 25.8535 8.30863C25.4883 7.25297 24.5117 7.03812 23.7305 7.84379C22.9687 8.63187 21.9961 8.41703 21.6338 7.37894C21.4541 6.8643 21.292 6.34379 21.1064 5.83207C20.9111 5.29105 20.5205 5.01176 19.9941 5.01273C19.4678 5.01371 19.0811 5.29301 18.8848 5.835C18.6992 6.34769 18.5371 6.8682 18.3574 7.38285C17.9961 8.41703 17.0186 8.62992 16.2598 7.84184C15.4854 7.03812 14.5068 7.2559 14.1416 8.3184C13.9727 8.80668 13.7959 9.29496 13.6533 9.79789C13.498 10.3536 13.165 10.7012 12.6328 10.9375C10.5328 11.8642 8.62213 13.171 6.99707 14.792C4.66504 17.1221 2.94629 19.7998 2.44922 23.126C2.08691 25.5547 2.58887 27.7784 4.16699 29.7061C5.63184 31.4913 7.57422 32.5733 9.69238 33.3702C13.0186 34.6182 16.4814 35.0264 19.9092 35.0586Z" fill="#D95103"/>
<path d="M12.9308 16.3772C12.4142 16.3157 12.0519 16.095 11.84 15.6604C11.6281 15.2258 11.6633 14.7747 11.9972 14.426C12.8156 13.5745 13.6506 12.7356 14.509 11.9241C14.9455 11.511 15.6437 11.5794 16.0636 12.0042C16.4836 12.429 16.5519 13.1106 16.1281 13.554C15.3136 14.4104 14.4679 15.2405 13.6154 16.0549C13.4416 16.22 13.1613 16.2727 12.9308 16.3772Z" fill="#D95103"/>
<path d="M27.0596 16.3986C26.7949 16.255 26.4854 16.1583 26.2783 15.9581C25.4854 15.2081 24.7158 14.4327 23.9561 13.6505C23.4766 13.1622 23.4824 12.4786 23.9365 12.0089C24.3906 11.5392 25.1084 11.5314 25.6113 12.0177C26.3926 12.7784 27.1631 13.5519 27.9297 14.3292C28.1033 14.4895 28.2217 14.7007 28.2679 14.9325C28.314 15.1643 28.2855 15.4047 28.1865 15.6193C28.0078 16.048 27.5762 16.3214 27.0596 16.3986Z" fill="#D95103"/>
<path d="M21.1709 13.9767C21.1709 14.3673 21.1807 14.7579 21.1709 15.1485C21.1504 15.8272 20.6641 16.3155 20.0166 16.3204C19.3516 16.3272 18.8447 15.8321 18.834 15.1358C18.8203 14.3702 18.8203 13.6043 18.834 12.838C18.8467 12.1622 19.3428 11.6661 19.9873 11.6661C20.6475 11.6583 21.1523 12.1544 21.1709 12.8526C21.1797 13.2227 21.1709 13.5997 21.1709 13.9767Z" fill="#D95103"/>
</svg>
