<svg width="17" height="17" viewBox="0 0 17 17" fill="none" xmlns="http://www.w3.org/2000/svg">
<g clip-path="url(#clip0_1297_669)">
<path d="M7.13514 8.51869C6.46994 9.00068 5.82242 9.46951 5.15491 9.95304C6.86214 11.7997 8.99157 13.0832 11.1718 14.3327C10.9895 14.6762 10.8111 15.015 10.6304 15.3531C10.5035 15.5914 10.3743 15.8289 10.2451 16.0664C10.1374 16.2645 10.0513 16.2846 9.87056 16.136C9.15921 15.555 8.43941 14.9849 7.74267 14.3861C6.52838 13.3424 5.37715 12.2314 4.35973 10.9882C3.73913 10.2292 3.16775 9.43624 2.79246 8.52101C2.68865 8.26803 2.61097 7.99493 2.5756 7.72416C2.49254 7.08203 2.81861 6.58302 3.44844 6.44144C3.83065 6.35557 4.23438 6.3517 4.62966 6.34164C4.98111 6.33236 5.33409 6.35789 5.68553 6.38265C5.8155 6.39193 5.88394 6.34551 5.90547 6.23024C5.99929 5.71886 6.14618 5.20902 6.1654 4.69454C6.19232 3.96344 6.12388 3.22848 6.09542 2.49506C6.09388 2.45792 6.08004 2.42156 6.06774 2.36818C5.98853 2.36818 5.91239 2.36818 5.83703 2.36818C4.35051 2.36818 2.86398 2.36586 1.37669 2.37205C1.22596 2.37205 1.14983 2.32795 1.086 2.19024C0.91143 1.80806 0.719174 1.4367 0.536147 1.06071C0.450785 0.886639 0.519228 0.779102 0.713791 0.771366C0.752243 0.769818 0.790694 0.771366 0.829145 0.771366C5.74398 0.771366 10.6588 0.772139 15.5736 0.766724C15.759 0.766724 15.8574 0.813143 15.9351 0.991082C16.0966 1.36243 16.2896 1.71986 16.4673 2.08425C16.5465 2.24672 16.4788 2.35812 16.2988 2.36508C16.2027 2.36895 16.1066 2.36586 16.0104 2.36586C13.3258 2.36586 10.6404 2.36586 7.95569 2.36586H7.74498C7.79343 3.38862 7.84034 4.39127 7.88802 5.40553C7.91109 5.3916 7.95338 5.37226 7.98953 5.34441C9.13922 4.42144 10.3666 4.4021 11.6432 5.03572C12.5414 5.48134 13.2027 6.1962 13.7872 6.99073C14.6016 8.0986 15.2522 9.30472 15.8843 10.5224C15.9412 10.6315 15.9266 10.6919 15.8236 10.7569C15.6336 10.876 15.4475 11.0029 15.2653 11.1336C15.1461 11.2187 15.0853 11.1955 15.0169 11.064C14.6301 10.3159 14.2509 9.56157 13.8356 8.8297C13.4627 8.17287 13.0159 7.56324 12.4222 7.08589C11.4509 6.30451 10.3797 6.14127 9.23535 6.64259C8.77009 6.84606 8.45248 7.21741 8.29868 7.7141C7.97722 8.75234 8.69319 9.54146 9.74982 9.31633C10.2851 9.20183 10.6619 8.86606 10.9595 8.4274C11.0848 8.24173 11.1894 8.04213 11.3163 7.82705C11.5217 7.98333 11.7285 8.1396 11.9346 8.2982C12.1077 8.43127 12.2745 8.57285 12.4537 8.69741C12.5606 8.77168 12.586 8.84595 12.5483 8.97205C12.3291 9.70238 11.85 10.2099 11.1956 10.5542C10.1728 11.0919 9.2315 10.835 8.3502 10.2037C7.76497 9.78438 7.35508 9.22504 7.13591 8.52024L7.13514 8.51869Z" fill="#101828"/>
</g>
<defs>
<clipPath id="clip0_1297_669">
<rect width="16" height="16" fill="white" transform="translate(0.5 0.5)"/>
</clipPath>
</defs>
</svg>
