<svg width="16" height="17" viewBox="0 0 16 17" fill="none" xmlns="http://www.w3.org/2000/svg">
<g clip-path="url(#clip0_1297_689)">
<path d="M6.63514 8.51869C5.96994 9.00068 5.32242 9.46951 4.65491 9.95304C6.36214 11.7997 8.49157 13.0832 10.6718 14.3327C10.4895 14.6762 10.3111 15.015 10.1304 15.3531C10.0035 15.5914 9.87427 15.8289 9.74508 16.0664C9.63741 16.2645 9.55128 16.2846 9.37056 16.136C8.65921 15.555 7.93941 14.9849 7.24267 14.3861C6.02838 13.3424 4.87715 12.2314 3.85973 10.9882C3.23913 10.2292 2.66775 9.43624 2.29246 8.52101C2.18865 8.26803 2.11097 7.99493 2.0756 7.72416C1.99254 7.08203 2.31861 6.58302 2.94844 6.44144C3.33065 6.35557 3.73438 6.3517 4.12966 6.34164C4.48111 6.33236 4.83409 6.35789 5.18553 6.38265C5.3155 6.39193 5.38394 6.34551 5.40547 6.23024C5.49929 5.71886 5.64618 5.20902 5.6654 4.69454C5.69232 3.96344 5.62388 3.22848 5.59542 2.49506C5.59388 2.45792 5.58004 2.42156 5.56774 2.36818C5.48853 2.36818 5.41239 2.36818 5.33703 2.36818C3.85051 2.36818 2.36398 2.36586 0.87669 2.37205C0.725961 2.37205 0.649828 2.32795 0.585999 2.19024C0.41143 1.80806 0.219174 1.4367 0.0361467 1.06071C-0.0492149 0.886639 0.0192282 0.779102 0.213791 0.771366C0.252243 0.769818 0.290694 0.771366 0.329145 0.771366C5.24398 0.771366 10.1588 0.772139 15.0736 0.766724C15.259 0.766724 15.3574 0.813143 15.4351 0.991082C15.5966 1.36243 15.7896 1.71986 15.9673 2.08425C16.0465 2.24672 15.9788 2.35812 15.7988 2.36508C15.7027 2.36895 15.6066 2.36586 15.5104 2.36586C12.8258 2.36586 10.1404 2.36586 7.45569 2.36586H7.24498C7.29343 3.38862 7.34034 4.39127 7.38802 5.40553C7.41109 5.3916 7.45338 5.37226 7.48953 5.34441C8.63922 4.42144 9.86658 4.4021 11.1432 5.03572C12.0414 5.48134 12.7027 6.1962 13.2872 6.99073C14.1016 8.0986 14.7522 9.30472 15.3843 10.5224C15.4412 10.6315 15.4266 10.6919 15.3236 10.7569C15.1336 10.876 14.9475 11.0029 14.7653 11.1336C14.6461 11.2187 14.5853 11.1955 14.5169 11.064C14.1301 10.3159 13.7509 9.56157 13.3356 8.8297C12.9627 8.17287 12.5159 7.56324 11.9222 7.08589C10.9509 6.30451 9.87965 6.14127 8.73535 6.64259C8.27009 6.84606 7.95248 7.21741 7.79868 7.7141C7.47722 8.75234 8.19319 9.54146 9.24982 9.31633C9.78507 9.20183 10.1619 8.86606 10.4595 8.4274C10.5848 8.24173 10.6894 8.04213 10.8163 7.82705C11.0217 7.98333 11.2285 8.1396 11.4346 8.2982C11.6077 8.43127 11.7745 8.57285 11.9537 8.69741C12.0606 8.77168 12.086 8.84595 12.0483 8.97205C11.8291 9.70238 11.35 10.2099 10.6956 10.5542C9.67279 11.0919 8.7315 10.835 7.8502 10.2037C7.26497 9.78438 6.85508 9.22504 6.63591 8.52024L6.63514 8.51869Z" fill="#101828"/>
</g>
<defs>
<clipPath id="clip0_1297_689">
<rect width="16" height="16" fill="white" transform="translate(0 0.5)"/>
</clipPath>
</defs>
</svg>
