<svg width="25" height="24" viewBox="0 0 25 24" fill="none" xmlns="http://www.w3.org/2000/svg">
<path d="M20.2937 12.3535L20.6472 12L20.2937 11.6464L14.7537 6.10644C14.6589 6.0117 14.6589 5.84829 14.7537 5.75355C14.8484 5.65881 15.0118 5.65881 15.1066 5.75355L21.1766 11.8235C21.2713 11.9183 21.2713 12.0817 21.1766 12.1764L15.1066 18.2464C15.0553 18.2977 14.9947 18.32 14.9301 18.32C14.8656 18.32 14.805 18.2977 14.7537 18.2464C14.6589 18.1517 14.6589 17.9883 14.7537 17.8935L20.2937 12.3535Z" fill="white" stroke="white"/>
<path d="M20.83 12.75H4C3.59 12.75 3.25 12.41 3.25 12C3.25 11.59 3.59 11.25 4 11.25H20.83C21.24 11.25 21.58 11.59 21.58 12C21.58 12.41 21.24 12.75 20.83 12.75Z" fill="white"/>
</svg>
