<svg width="72" height="72" viewBox="0 0 72 72" fill="none" xmlns="http://www.w3.org/2000/svg">
<g clip-path="url(#clip0_1297_1076)">
<path d="M0 70.4527C0.560206 68.2317 1.1232 66.0116 1.68155 63.7896C1.91009 62.882 2.11912 61.9698 2.35695 61.0641C2.57528 60.2336 3.11226 59.8686 3.82947 60.0265C4.51974 60.1788 4.86441 60.8003 4.67117 61.6112C4.13512 63.8648 3.58514 66.1156 3.04165 68.3673C3.01564 68.4751 2.9952 68.5847 2.94225 68.8373C6.31185 67.5629 9.57553 66.3283 12.7779 65.1179C11.756 63.8648 10.6727 62.6925 9.76692 61.3957C7.68681 58.4213 6.72619 55.0512 6.48557 51.4516C6.36387 49.629 6.18085 47.8102 6.04986 45.9877C5.97646 44.9696 6.39081 44.4215 7.18235 44.3983C7.95159 44.376 8.35479 44.8702 8.44676 45.8437C8.71339 48.6639 8.83417 51.511 9.3247 54.2932C10.0178 58.2225 12.1601 61.3799 15.2333 63.9029C15.3448 63.9949 15.578 64.0413 15.7109 63.9911C20.2213 62.2949 24.7262 60.5838 29.2311 58.8737C29.2432 58.8691 29.245 58.8393 29.271 58.7687C28.9561 58.6006 28.6318 58.4278 28.3076 58.256C17.6423 52.6044 11.2004 43.8326 8.90477 31.9981C8.85646 31.7473 8.83138 31.4844 8.84439 31.2298C8.87597 30.6391 9.34699 30.182 9.93321 30.1365C10.565 30.0873 11.0657 30.5341 11.2283 31.2754C11.5079 32.5545 11.716 33.8559 12.0914 35.1072C15.2538 45.6588 21.9475 53.0558 32.0823 57.3475C32.3452 57.4589 32.7029 57.5602 32.9453 57.471C35.6433 56.478 38.3272 55.4469 41.0772 54.4019C39.9512 53.8993 38.8716 53.485 37.8543 52.9527C32.2532 50.0229 27.3869 46.1381 23.0939 41.514C19.4604 37.5995 16.1707 33.4407 13.8491 28.5908C13.0167 26.8518 12.3924 25.0451 12.1452 23.1176C11.6807 19.5022 13.9327 16.8938 17.4351 17.0247C17.6906 17.034 17.9498 17.0703 18.1988 17.1288C18.8844 17.2895 19.2375 17.7985 19.1501 18.4655C19.0665 19.0981 18.5379 19.505 17.8449 19.466C17.5884 19.452 17.3302 19.4074 17.0747 19.4167C15.4805 19.4743 14.5533 20.3921 14.4975 21.9796C14.4455 23.4622 14.8719 24.8519 15.4136 26.2053C16.9084 29.9433 19.1641 33.2168 21.6975 36.3064C26.5434 42.2153 32.125 47.264 38.9469 50.8283C40.6767 51.7321 42.4781 52.4558 44.4486 52.6323C44.8648 52.6694 45.2931 52.6583 45.7075 52.6062C46.9254 52.4511 47.5692 51.76 47.6974 50.5245C47.8387 49.1618 47.494 47.8762 47.0759 46.6017C46.9737 46.2914 46.8427 45.9802 46.8102 45.6607C46.747 45.0494 47.036 44.6091 47.6287 44.4317C48.214 44.2561 48.7677 44.4234 48.9999 44.9844C49.8918 47.1312 50.4929 49.3429 49.9104 51.6838C49.5406 53.1692 48.5847 54.1863 47.1437 54.7279C41.5166 56.8421 35.8848 58.9443 30.2604 61.0669C20.8484 64.6191 11.4401 68.1834 2.03179 71.7458C1.86364 71.8099 1.71035 71.9139 1.54963 71.9994H0C0 71.4838 0 70.9683 0 70.4527Z" fill="#D95103"/>
<path d="M69.4788 71.9991C68.5256 71.3748 68.4234 70.9624 68.9316 69.8932C69.7436 68.183 69.7613 66.4627 68.9623 64.7423C68.8703 64.5435 68.7403 64.3624 68.6316 64.1794C68.3881 65.0284 68.2414 65.8617 67.9143 66.6169C67.1637 68.3558 65.7822 69.3293 63.8963 69.4622C61.9184 69.6015 60.3622 68.7757 59.3914 67.0525C58.4391 65.3628 58.506 63.636 59.606 62.0103C60.575 60.5779 61.9267 59.6592 63.5934 59.1994C63.7476 59.1567 63.8972 59.0991 64.1146 59.0276C62.5334 57.2347 60.692 55.8934 58.5413 55.0174C57.486 54.5882 56.3665 54.3068 55.2609 54.0169C54.4025 53.7921 53.9175 53.2766 54.0485 52.5864C54.1907 51.8395 54.8354 51.4754 55.7319 51.6556C60.7004 52.6561 64.6088 55.2571 67.4888 59.4261C67.7731 59.8376 68.1373 60.224 68.5405 60.5194C71.846 62.9383 72.919 67.634 70.9356 71.2039C70.7637 71.5132 70.4367 71.7362 70.1821 72H69.4788V71.9991ZM66.2319 63.8431C66.2012 63.831 66.1705 63.8199 66.1399 63.8078C66.1111 63.4817 66.1129 63.1492 66.047 62.8315C65.7813 61.5607 65.1421 61.1957 63.9074 61.6025C62.918 61.9286 62.1209 62.5194 61.5514 63.3972C60.8035 64.5491 61.1556 66.0753 62.3197 66.7646C63.4921 67.4594 65.0362 67.0674 65.6391 65.8356C65.9392 65.2216 66.0414 64.5101 66.2328 63.8431H66.2319Z" fill="#D95103"/>
<path d="M0 5.20107C0.330735 4.63628 0.805471 4.36132 1.47623 4.30651C2.33745 4.23591 3.1968 4.09472 4.04222 3.91729C4.31257 3.86063 4.63215 3.64326 4.76594 3.40638C5.22674 2.59358 5.62343 1.74361 6.02756 0.900147C6.2719 0.389239 6.64815 0.0641157 7.21951 0.0622578C7.79179 0.0613289 8.16898 0.389239 8.41332 0.897361C8.81837 1.74082 9.20857 2.59358 9.66658 3.40824C9.79943 3.64419 10.1209 3.86249 10.3903 3.91543C11.3305 4.10122 12.2846 4.21641 13.235 4.34646C13.7673 4.41891 14.1742 4.65672 14.3359 5.1862C14.4938 5.70454 14.3378 6.14392 13.9429 6.52014C13.2313 7.19918 12.5141 7.87544 11.8433 8.59443C11.6714 8.77928 11.5655 9.12856 11.5971 9.38215C11.7105 10.286 11.8953 11.1815 12.0551 12.0807C12.1536 12.6362 12.1499 13.1675 11.6445 13.5456C11.1177 13.9404 10.5984 13.8075 10.0698 13.5159C9.29125 13.0867 8.51458 12.6483 7.70446 12.285C7.43505 12.1643 7.01977 12.1559 6.75314 12.2776C5.8817 12.6743 5.07345 13.2177 4.18901 13.5744C3.79231 13.7342 3.21817 13.7119 2.82054 13.5447C2.33187 13.3394 2.2529 12.7978 2.35138 12.2646C2.51675 11.3673 2.63381 10.4606 2.81775 9.56701C2.91809 9.08211 2.81218 8.75513 2.44243 8.40493C1.59794 7.60419 0.811045 6.74122 0 5.90426C0 5.67017 0 5.43515 0 5.20107ZM5.15241 10.3677C6.57105 9.19358 7.91071 9.32735 9.32377 10.3603C8.58612 8.62694 9.18627 7.40912 10.577 6.3743C8.72268 6.51271 7.7184 5.62651 7.19907 3.94423C6.74477 5.70733 5.62994 6.45604 3.84155 6.41982C5.35494 7.40169 5.7089 8.68453 5.15148 10.3677H5.15241Z" fill="#D95103"/>
<path d="M64.8046 23.917C64.7777 24.6648 64.3197 24.989 63.7613 25.2538C60.8442 26.6341 57.9317 28.0219 55.0173 29.4088C49.7599 31.9104 44.5025 34.412 39.247 36.9192C38.736 37.1626 38.1842 37.3539 37.7401 36.9331C37.4716 36.6795 37.2904 36.2271 37.2626 35.8509C37.218 35.2546 37.715 34.9833 38.1981 34.7539C41.7684 33.0586 45.3359 31.3605 48.9043 29.6624C53.5494 27.4516 58.1937 25.238 62.8397 23.0308C63.6796 22.6323 64.3829 22.819 64.6839 23.5037C64.7489 23.6514 64.7749 23.8167 64.8037 23.918L64.8046 23.917Z" fill="#D95103"/>
<path d="M30.1242 16.0862C30.0015 20.886 29.0446 25.4804 27.2145 29.8984C26.6951 31.1506 26.1711 32.4009 25.6462 33.6503C25.2291 34.6424 24.6345 34.9898 23.9006 34.6749C23.2094 34.3786 23.0561 33.7005 23.4259 32.7539C24.3707 30.3396 25.44 27.9625 26.2083 25.4934C27.8657 20.1651 28.0292 14.73 26.9292 9.25863C26.8874 9.05241 26.8447 8.84619 26.815 8.63718C26.7137 7.91726 27.0816 7.34783 27.7347 7.20385C28.3646 7.06451 28.9582 7.44815 29.1348 8.16436C29.2973 8.82203 29.4497 9.48807 29.525 10.1597C29.7461 12.1327 29.9272 14.1113 30.1242 16.0871V16.0862Z" fill="#D95103"/>
<path d="M61.1894 43.1038C61.1643 44.0717 60.3849 44.5539 59.4624 44.2715C58.1218 43.8609 56.7979 43.3843 55.4396 43.0425C50.0392 41.6816 44.6006 41.6398 39.1407 42.6774C38.1754 42.8604 37.2055 43.0267 36.2319 43.1568C35.537 43.2497 34.9879 42.8391 34.8746 42.2232C34.7492 41.546 35.1226 40.932 35.8203 40.8094C39.6712 40.1331 43.5192 39.4253 47.4583 39.5497C51.8201 39.6872 56.0593 40.4582 60.1619 41.9594C60.7649 42.1795 61.1857 42.5158 61.1894 43.1038Z" fill="#D95103"/>
<path d="M48.5789 13.1832C49.5395 13.1832 50.5002 13.1721 51.4608 13.1869C52.3415 13.2009 52.7763 13.6022 52.7856 14.4688C52.806 16.4131 52.8051 18.3582 52.7847 20.3025C52.7754 21.1302 52.3489 21.5695 51.5184 21.5807C49.5739 21.6067 47.6285 21.6067 45.685 21.5825C44.8228 21.5714 44.4011 21.1292 44.3927 20.2551C44.3741 18.3341 44.3732 16.4131 44.3927 14.4921C44.402 13.5892 44.8359 13.1981 45.7667 13.1869C46.7041 13.1758 47.6415 13.1841 48.578 13.1851L48.5789 13.1832ZM50.3478 19.146V15.63H46.8435V19.146H50.3478Z" fill="#D95103"/>
<path d="M29.9325 36.1169C29.5915 35.8466 29.1502 35.6571 29.0006 35.3329C28.8501 35.0068 28.9486 34.5387 29.022 34.1494C29.0545 33.9757 29.2821 33.8299 29.4382 33.6896C33.2166 30.2851 36.9968 26.8834 40.777 23.4808C40.8811 23.3869 40.9851 23.2913 41.0938 23.2021C41.7228 22.6809 42.3629 22.6754 42.8488 23.1844C43.3393 23.699 43.3003 24.4348 42.6927 24.9838C38.7787 28.5174 34.8573 32.0426 30.9274 35.5586C30.6794 35.7806 30.3357 35.8958 29.9334 36.1178L29.9325 36.1169Z" fill="#D95103"/>
<path d="M66.0173 50.3635C64.0245 50.371 62.4386 48.8141 62.4182 46.8308C62.3968 44.8132 63.9836 43.1885 65.9829 43.1792C67.9654 43.1699 69.6126 44.8151 69.6033 46.7965C69.5931 48.7611 67.9905 50.3561 66.0182 50.3635H66.0173ZM65.9847 47.9623C66.6471 47.9697 67.2036 47.4263 67.2008 46.7751C67.1981 46.1323 66.6211 45.5684 65.9792 45.5796C65.3474 45.5917 64.8346 46.1072 64.8188 46.7463C64.8021 47.4281 65.3065 47.9539 65.9847 47.9613V47.9623Z" fill="#D95103"/>
<path d="M37.1866 16.7753C35.1752 16.7651 33.594 15.1543 33.6145 13.1358C33.634 11.1823 35.2709 9.57429 37.2256 9.58822C39.2165 9.60216 40.8126 11.238 40.794 13.2454C40.7754 15.2184 39.1747 16.7846 37.1866 16.7753ZM38.3971 13.1702C38.385 12.5143 37.8155 11.97 37.1671 11.9951C36.539 12.0192 36.0188 12.5524 36.0114 13.1785C36.003 13.8436 36.5363 14.374 37.2107 14.3722C37.8871 14.3703 38.4092 13.8408 38.3971 13.1702Z" fill="#D95103"/>
<path d="M26.3808 4.78583C25.043 4.77468 24.0089 3.70456 24.0266 2.35019C24.0442 1.04319 25.095 0.00372512 26.4021 9.42698e-06C27.7223 -0.00370627 28.8195 1.0915 28.813 2.40685C28.8065 3.72407 27.7093 4.7979 26.3808 4.78676V4.78583Z" fill="#D95103"/>
<path d="M65.9807 18.5811C65.9807 18.791 65.9928 19.0028 65.9788 19.2118C65.9305 19.8992 65.4641 20.3683 64.8259 20.3832C64.2007 20.398 63.6776 19.9391 63.6079 19.2657C63.5671 18.8727 63.5773 18.4714 63.5959 18.0757C63.6321 17.3019 64.1217 16.7975 64.8045 16.8003C65.4892 16.8031 65.9547 17.3103 65.9844 18.0906C65.9909 18.2541 65.9844 18.4176 65.9844 18.5811C65.9825 18.5811 65.9816 18.5811 65.9798 18.5811H65.9807Z" fill="#D95103"/>
<path d="M63.0404 3.61792C64.2304 3.60863 64.8204 4.0155 64.7999 4.82088C64.7795 5.62254 64.1914 6.01176 62.993 6.00711C62.7366 6.00711 62.4755 6.01176 62.2256 5.96531C61.592 5.8492 61.1693 5.32714 61.2009 4.73727C61.2334 4.13069 61.6877 3.67737 62.3399 3.62071C62.5721 3.60027 62.8072 3.61792 63.0404 3.61792Z" fill="#D95103"/>
<path d="M70.139 25.1788C69.9755 25.1788 69.8111 25.1853 69.6485 25.1778C68.9248 25.1425 68.4185 24.6688 68.4008 24.0158C68.3832 23.3432 68.9062 22.8267 69.6615 22.7905C70.0118 22.7738 70.3629 22.7747 70.7132 22.7905C71.4685 22.8221 71.9999 23.3284 71.9962 23.9963C71.9925 24.6697 71.4666 25.1518 70.6992 25.1806C70.5125 25.1871 70.3249 25.1816 70.1381 25.1806L70.139 25.1788Z" fill="#D95103"/>
<path d="M65.9834 29.3831C65.9834 29.5698 65.9918 29.7575 65.9816 29.9442C65.9444 30.6706 65.4688 31.175 64.8175 31.1871C64.1755 31.1992 63.6534 30.6994 63.5995 29.986C63.5707 29.6144 63.5754 29.2373 63.5949 28.8648C63.6339 28.104 64.143 27.5791 64.811 27.5875C65.4873 27.5959 65.9556 28.1142 65.9844 28.8926C65.9909 29.0561 65.9844 29.2196 65.9844 29.3831H65.9834Z" fill="#D95103"/>
<path d="M69.236 18.561C69.4041 18.6837 69.864 18.8546 70.008 19.1695C70.165 19.5141 70.1715 20.0705 69.9904 20.3919C69.7274 20.8592 69.2917 21.2949 68.8254 21.5605C68.5048 21.7426 67.9335 21.751 67.6092 21.581C67.311 21.424 67.0667 20.9382 67.024 20.5712C66.9431 19.882 68.2995 18.5833 69.2369 18.562L69.236 18.561Z" fill="#D95103"/>
<path d="M61.1868 1.79593C61.1868 2.00587 61.1999 2.21766 61.1841 2.42667C61.1339 3.10478 60.6517 3.57946 60.0163 3.58783C59.3836 3.59619 58.8689 3.13358 58.8095 2.46011C58.7751 2.06532 58.7834 1.66588 58.8002 1.26923C58.8327 0.508441 59.3381 -0.00804044 60.0172 0.00310665C60.7028 0.0142537 61.1627 0.524233 61.1896 1.30546C61.1952 1.46895 61.1896 1.63244 61.1896 1.79593C61.1887 1.79593 61.1868 1.79593 61.1859 1.79593H61.1868Z" fill="#D95103"/>
<path d="M61.186 7.80326C61.186 8.01319 61.1999 8.22499 61.1832 8.43399C61.1302 9.12047 60.6601 9.571 60.008 9.57471C59.3641 9.57843 58.8671 9.12976 58.8077 8.45072C58.7751 8.08007 58.7872 7.70386 58.7984 7.33043C58.8235 6.50183 59.2945 6.00393 60.0256 6.01786C60.7308 6.03087 61.1637 6.51112 61.1897 7.31278C61.1953 7.47627 61.1897 7.63976 61.1897 7.80326C61.1878 7.80326 61.1869 7.80326 61.1851 7.80326H61.186Z" fill="#D95103"/>
<path d="M56.8501 6.02565C56.6578 5.99871 56.2955 6.00242 55.9731 5.88909C55.4259 5.69774 55.176 5.25464 55.2318 4.67871C55.2866 4.10184 55.6164 3.71634 56.1952 3.64388C56.655 3.58629 57.1279 3.59558 57.5924 3.61788C58.3013 3.65039 58.7593 4.09813 58.789 4.73816C58.8187 5.3754 58.3923 5.87423 57.7058 5.98013C57.4763 6.01543 57.2403 6.00614 56.8492 6.02472L56.8501 6.02565Z" fill="#D95103"/>
<path d="M70.2034 28.4732C70.0835 28.6283 69.9024 29.0696 69.5837 29.2182C69.2595 29.3696 68.7206 29.3715 68.4196 29.194C67.9533 28.92 67.5129 28.4936 67.2472 28.0264C67.0651 27.705 67.0577 27.1318 67.2295 26.8067C67.3866 26.5085 67.8761 26.2614 68.2413 26.2243C68.9733 26.1518 70.2108 27.4867 70.2024 28.4723L70.2034 28.4732Z" fill="#D95103"/>
<path d="M61.606 21.7833C60.6602 21.7694 59.3057 20.467 59.3986 19.7694C59.4478 19.4025 59.7042 18.938 60.008 18.7652C60.3081 18.5943 60.873 18.5943 61.1665 18.7726C61.6496 19.0662 62.0946 19.5121 62.3863 19.996C62.5638 20.2905 62.5461 20.8404 62.3863 21.16C62.2266 21.4786 61.7797 21.6542 61.6069 21.7824L61.606 21.7833Z" fill="#D95103"/>
</g>
<defs>
<clipPath id="clip0_1297_1076">
<rect width="72" height="72" fill="white"/>
</clipPath>
</defs>
</svg>
