<svg width="72" height="72" viewBox="0 0 72 72" fill="none" xmlns="http://www.w3.org/2000/svg">
<g clip-path="url(#clip0_1297_858)">
<path d="M72.3335 58.9977C72.214 59.5163 72.1035 60.0361 71.9727 60.5525C70.5712 66.0829 65.8764 69.7404 59.9322 69.754C44.2037 69.7912 28.4752 69.7889 12.7467 69.7551C6.52859 69.7416 1.70405 65.8224 0.557396 59.8918C0.302583 58.5738 0.324005 57.187 0.345427 55.834C0.364595 54.6219 1.41767 53.7323 2.70188 53.6827C3.25548 53.6613 3.80908 53.6793 4.3514 53.6793C4.04698 52.4988 3.74256 51.4007 3.48549 50.2901C3.31186 49.5392 3.63319 48.9901 4.24429 48.8638C4.91064 48.7263 5.33683 49.1175 5.54993 49.8977C5.85097 50.9993 6.22529 52.0805 6.57369 53.1697C6.69433 53.5474 6.93336 53.7064 7.35842 53.6883C8.22208 53.6523 9.08912 53.6782 10.0419 53.6782C10.2764 51.7479 10.7454 49.9045 11.6327 48.1873C12.5133 46.4848 13.6927 45.0157 15.1742 43.7055C13.6758 42.5465 12.0285 41.8553 10.2628 41.446C9.44428 41.2566 8.59866 41.1845 7.76996 41.0379C7.33475 40.9612 7.05851 41.0785 6.91419 41.5193C6.54325 42.6513 6.17794 43.7856 5.76077 44.8996C5.62209 45.2694 5.39884 45.6798 5.09104 45.8895C4.87118 46.0394 4.34464 46.0056 4.1338 45.8342C3.87222 45.62 3.61628 45.151 3.66702 44.8421C3.98384 42.9095 4.63102 41.0728 5.68297 39.4188C5.87803 39.1121 6.48011 38.9126 6.89051 38.9182C10.4523 38.9588 13.7209 39.9454 16.5937 42.1079C16.7053 42.1924 16.8215 42.2714 16.8124 42.2657C18.3605 41.6896 19.7901 41.0368 21.2875 40.6376C22.4488 40.3276 23.6924 40.2994 24.9044 40.2171C25.3205 40.1889 25.555 40.0322 25.5685 39.6827C25.5764 39.4752 25.4062 39.1809 25.2258 39.0591C20.081 35.5921 17.0346 30.7867 16.1111 24.6667C14.8055 16.0042 19.7383 6.973 27.7649 3.44846C34.9436 0.295995 41.8123 0.979254 48.2897 5.4227C48.4825 5.55461 48.6765 5.69442 48.8343 5.86355C49.221 6.28072 49.2571 6.76103 48.9189 7.20639C48.5851 7.64724 48.1206 7.77013 47.6076 7.50517C47.4216 7.40934 47.2558 7.27517 47.0845 7.15114C36.0486 -0.825859 20.4711 5.50839 18.3278 18.9627C17.127 26.5 19.9085 32.5456 26.0522 37.0511C26.236 37.1864 26.4446 37.2879 26.6442 37.4074C27.1369 36.6971 27.6217 36.0386 28.0637 35.3508C28.4944 34.6811 29.075 34.5233 29.8203 34.6766C32.966 35.326 35.7599 36.6553 38.0859 38.9024C38.2043 39.0163 38.3182 39.1336 38.44 39.2441C38.4715 39.2722 38.5234 39.279 38.6114 39.314C40.5608 38.1087 42.7087 37.3487 44.9986 36.9857C45.1147 36.9676 45.232 36.9214 45.3447 36.9327C46.8635 37.0793 47.8737 36.1931 48.8681 35.237C55.641 28.7336 56.5283 18.5625 50.9732 10.9936C50.9179 10.9181 50.8582 10.8448 50.8063 10.767C50.4027 10.1604 50.4635 9.5854 50.9675 9.21445C51.4524 8.85816 52.0691 8.96753 52.502 9.52677C54.0512 11.5303 55.252 13.7301 55.8834 16.1846C58.0595 24.6521 55.853 31.806 49.3338 37.6295C49.1602 37.7851 48.9798 37.9317 48.8242 38.0647C49.2842 39.3151 49.7295 40.5395 50.1929 41.7572C50.2313 41.8576 50.3959 41.9805 50.4951 41.976C52.0635 41.8914 52.8155 42.7224 52.9666 44.4159C53.6217 43.7619 54.1403 43.2444 54.6589 42.728C54.8912 42.4957 55.1144 42.2545 55.3557 42.0335C55.9184 41.5171 56.4911 41.5081 57.0199 42.0639C57.4709 42.5375 57.8926 43.046 58.2748 43.5759C58.657 44.1047 58.975 44.6797 59.3504 45.2806C59.6255 45.1228 59.9029 44.9627 60.1814 44.8048C62.0327 43.7608 64.0419 43.2805 66.1458 43.117C66.9306 43.0561 67.4176 43.3662 67.7739 44.0551C69.3073 47.0249 69.853 50.0984 68.8484 53.358C68.8281 53.4223 68.8338 53.4955 68.8146 53.712C70.3931 53.4933 71.7044 53.8699 72.3335 55.4844V59.0011V58.9977ZM3.0717 61.1027H3.96355C18.2162 61.1027 32.4699 61.1027 46.7225 61.1027C46.957 61.1027 47.1927 61.0892 47.4261 61.1084C48.0191 61.1568 48.3811 61.4714 48.4352 62.0758C48.4871 62.6508 48.1026 63.1119 47.505 63.1942C47.2513 63.2292 46.9897 63.2123 46.7327 63.2123C32.8318 63.2123 18.9299 63.2123 5.02903 63.2123C4.76745 63.2123 4.50587 63.2123 4.1214 63.2123C5.76753 65.5045 7.8128 66.8969 10.4038 67.4212C11.2686 67.596 12.1717 67.6478 13.0579 67.6489C28.5767 67.6625 44.0955 67.6467 59.6143 67.667C63.0633 67.6715 65.926 66.4967 68.1043 63.7817C68.226 63.6294 68.3196 63.4535 68.4741 63.2134C68.1054 63.2134 67.8495 63.2134 67.5935 63.2134C62.6946 63.2134 57.7945 63.2134 52.8955 63.2134C52.661 63.2134 52.4209 63.2337 52.1942 63.1897C51.6125 63.077 51.2652 62.7015 51.2911 62.1118C51.3171 61.5289 51.67 61.1681 52.2732 61.1117C52.4829 61.0926 52.6949 61.105 52.9057 61.105C58.2275 61.105 63.5481 61.0926 68.8698 61.1219C69.4911 61.1253 69.7718 60.9336 69.8429 60.3484C69.9658 59.3292 70.1642 58.3144 70.2082 57.2918C70.2724 55.7911 70.2262 55.7889 68.7571 55.7889C47.0258 55.7889 25.2946 55.7889 3.56442 55.7889C3.3299 55.7889 3.07734 55.737 2.8665 55.808C2.69399 55.8667 2.45045 56.0674 2.44482 56.2128C2.38506 57.8544 2.40648 59.4915 3.07283 61.1039L3.0717 61.1027ZM37.1174 53.6421C36.9765 48.9292 32.7089 42.3819 24.7917 42.3244C16.835 42.2669 12.3938 48.9957 12.2811 53.6297H14.6217C15.4076 48.4286 19.4384 45.1904 23.7093 44.8003C26.0466 44.5872 28.2351 45.0811 30.2037 46.3822C32.8115 48.105 34.2919 50.5641 34.7734 53.6421H37.1174ZM39.316 53.6703C40.7807 53.6703 42.1787 53.6793 43.578 53.6568C43.7313 53.6545 43.9027 53.491 44.029 53.3659C46.3189 51.0816 48.61 48.7984 50.874 46.4893C51.0566 46.3022 51.1209 45.9278 51.113 45.6437C51.104 45.2773 51.0093 44.8962 50.8683 44.5545C50.7905 44.3674 50.5526 44.1306 50.3722 44.1182C48.0372 43.9558 45.7788 44.2636 43.7381 45.4904C40.6938 47.3203 39.3938 50.1142 39.316 53.6703ZM23.6529 46.9482C22.1917 47.1478 20.9898 47.6506 19.8116 48.5684C20.2107 48.9236 20.5828 49.2133 20.9064 49.5493C21.3979 50.0601 21.3991 50.6746 20.9515 51.1041C20.5219 51.5157 19.9311 51.5134 19.4463 51.0444C19.0967 50.7061 18.8013 50.3126 18.4811 49.9439C18.3853 49.9552 18.2895 49.9654 18.1936 49.9766C17.6761 51.156 17.1597 52.3354 16.5903 53.6354H32.5928C32.4034 52.3027 31.896 51.1571 31.0932 50.0894C30.8914 50.2811 30.7381 50.4243 30.5881 50.5708C30.4201 50.7343 30.2645 50.9113 30.0875 51.0647C29.5779 51.5078 29.004 51.5134 28.5767 51.0895C28.1618 50.6779 28.1482 50.0544 28.6083 49.5854C28.9307 49.2562 29.3242 48.9957 29.7301 48.6688C28.4301 47.6766 27.2113 47.1388 25.7546 46.9527C25.7546 47.6292 25.7783 48.2595 25.7478 48.8864C25.7162 49.5324 25.2483 49.9789 24.6789 49.9688C24.1005 49.9586 23.6744 49.511 23.6552 48.8537C23.6371 48.2482 23.6518 47.6416 23.6518 46.9493L23.6529 46.9482ZM60.2287 53.641C60.4712 53.6545 60.6752 53.6759 60.8804 53.6759C62.5209 53.6782 64.1614 53.6523 65.8008 53.6917C66.3499 53.7053 66.572 53.5001 66.74 53.0062C67.6059 50.466 67.2891 48.0227 66.1864 45.6414C66.1109 45.4791 65.8482 45.2829 65.6903 45.2976C63.7736 45.4825 61.9775 46.0383 60.3979 47.1748C60.2682 47.2684 60.1476 47.5289 60.1825 47.6732C60.6606 49.6429 60.6538 51.6138 60.2287 53.6421V53.641ZM48.1184 41.976C47.6978 40.9984 47.3539 40.1314 46.9424 39.2959C46.8556 39.1189 46.4982 38.9374 46.3054 38.9735C45.0888 39.1956 43.8508 39.3782 42.6816 39.7604C39.9305 40.6579 37.6643 42.2545 36.1219 44.7597C35.9978 44.9616 35.8907 45.3291 35.9899 45.4858C36.6788 46.5874 37.4241 47.654 38.1525 48.7319C40.0805 44.6154 43.4539 42.4709 48.1195 41.9748L48.1184 41.976ZM27.4176 40.446C30.0796 41.0108 32.2794 42.0887 34.1781 43.6762C35.0631 42.6175 35.9076 41.6062 36.7758 40.5666C34.8658 38.6645 32.5669 37.4886 29.959 36.8865C29.8135 36.8526 29.5497 36.9023 29.4866 37.0049C28.8022 38.1053 28.1471 39.2238 27.4176 40.4471V40.446ZM56.2498 44.373C55.3602 45.2525 54.5349 46.0699 53.6972 46.8986C55.0626 48.9743 55.2385 51.2327 54.235 53.6748C55.4595 53.6748 56.5994 53.6906 57.737 53.6545C57.8768 53.65 58.1091 53.3738 58.1271 53.2058C58.2455 52.0715 58.4417 50.9249 58.3774 49.7951C58.2613 47.7431 57.4799 45.9075 56.251 44.3741L56.2498 44.373ZM46.842 53.6782C47.204 53.6782 47.4779 53.6782 47.7519 53.6782C48.9944 53.6782 50.2358 53.6838 51.4783 53.6658C51.617 53.6635 51.7883 53.5632 51.8853 53.455C52.9903 52.2305 53.0714 49.7387 52.104 48.4681C50.3869 50.1683 48.6618 51.8765 46.8432 53.6782H46.842Z" fill="#D95103"/>
<path d="M48.1996 20.6504C49.468 22.2492 49.4996 23.3011 48.3778 25.007C48.2955 25.1321 48.2695 25.3543 48.3191 25.4952C48.9347 27.2439 48.7014 28.1922 47.3923 29.385C47.2491 29.5147 47.1759 29.827 47.2108 30.03C47.5152 31.8024 46.434 33.3955 44.6537 33.4226C40.5552 33.4835 36.4534 33.4463 32.355 33.3549C31.4507 33.3346 30.5544 32.922 29.534 32.6581C28.4403 33.8431 26.872 33.5252 25.3769 33.3809C24.3678 33.2839 23.5605 32.3346 23.5064 31.2961C23.4501 30.198 23.4636 29.0942 23.4895 27.9937C23.5042 27.3804 23.9619 26.9621 24.5133 26.9587C25.059 26.9564 25.5291 27.3691 25.5573 27.9836C25.6002 28.8957 25.5889 29.8112 25.5742 30.7245C25.5675 31.1608 25.7152 31.3739 26.1763 31.3706C28.4369 31.3536 27.9961 31.578 28.0085 29.6376C28.0322 26.0522 28.0006 22.4668 28.0288 18.8813C28.0344 18.2263 27.8315 18.0244 27.1843 18.0492C25.3487 18.118 25.6013 17.7662 25.5821 19.6525C25.572 20.6831 25.5867 21.7147 25.5776 22.7464C25.5709 23.6653 25.2225 24.1163 24.5358 24.1276C23.8424 24.1388 23.4782 23.689 23.4726 22.7813C23.4647 21.3753 23.4579 19.9694 23.4749 18.5634C23.494 16.9071 24.4603 15.9634 26.1154 15.9532C26.4199 15.951 26.7265 15.9724 27.0287 15.9499C28.1224 15.8687 29.0841 16.1055 29.7539 17.1055C30.8137 16.1269 31.5612 15.0152 31.984 13.696C32.6414 11.6473 33.2863 9.59306 33.9346 7.54215C34.5604 5.56228 36.1591 5.03687 37.7861 6.31544C39.2406 7.45872 39.7806 8.9876 39.4965 10.8029C39.3702 11.6113 39.1887 12.4118 39.0444 13.2179C38.7749 14.7243 39.7491 15.9228 41.287 15.9476C42.5757 15.9679 43.8734 16.0502 45.152 15.9318C47.6235 15.7041 49.5695 18.1383 48.1974 20.6526L48.1996 20.6504ZM36.0768 7.77216C35.3981 9.91891 34.7362 12.0138 34.0733 14.1087C33.4182 16.1799 32.2422 17.8801 30.516 19.2106C30.3153 19.365 30.1451 19.6965 30.1428 19.9468C30.1214 23.1331 30.1428 26.3205 30.1271 29.5068C30.1237 30.1923 30.4236 30.6636 31.0279 30.8587C31.7101 31.0785 32.4305 31.2826 33.1386 31.3007C35.7375 31.366 38.3397 31.3525 40.9397 31.366C41.9939 31.3717 43.0481 31.366 44.1034 31.366C44.6322 31.366 45.161 31.2916 45.1486 30.6253C45.1374 30.0119 44.639 29.9195 44.1316 29.9251C43.8035 29.9296 43.4754 29.9307 43.1473 29.924C42.3536 29.9071 41.8969 29.5474 41.8688 28.9239C41.8406 28.2745 42.3231 27.8381 43.1293 27.8212C43.9016 27.8043 44.6762 27.8269 45.4485 27.8122C46.1453 27.7998 46.5524 27.4525 46.5557 26.9034C46.5591 26.3622 46.1307 25.9834 45.4598 25.9699C44.6864 25.9552 43.9129 25.9733 43.1406 25.9631C42.3231 25.953 41.8451 25.5414 41.8654 24.8886C41.8845 24.2719 42.366 23.8694 43.1315 23.8603C44.0685 23.8491 45.0066 23.8648 45.9435 23.8536C46.6595 23.8457 47.0383 23.5289 47.0518 22.9606C47.0654 22.3687 46.6606 22.0169 45.9221 22.009C44.9851 21.9988 44.0471 22.0124 43.1101 22.0045C42.3434 21.9977 41.8721 21.5963 41.8654 20.9683C41.8575 20.3414 42.3344 19.9141 43.0887 19.9006C43.8385 19.8871 44.5883 19.9006 45.338 19.8961C46.1138 19.8916 46.5749 19.5319 46.558 18.9524C46.5422 18.3954 46.1025 18.0616 45.3617 18.0594C43.9794 18.0549 42.596 18.0786 41.2148 18.0515C38.4186 17.9963 36.4884 15.6263 36.9777 12.8741C37.1175 12.0905 37.2742 11.3102 37.4118 10.5266C37.626 9.30668 37.1852 8.35507 36.0757 7.77103L36.0768 7.77216Z" fill="#D95103"/>
</g>
<defs>
<clipPath id="clip0_1297_858">
<rect width="72" height="72" fill="white"/>
</clipPath>
</defs>
</svg>
