<svg width="32" height="32" viewBox="0 0 32 32" fill="none" xmlns="http://www.w3.org/2000/svg">
<rect width="32" height="32" rx="16" fill="#A6AEBB"/>
<path d="M21.6101 10.4082C20.6216 9.75272 19.9088 8.70343 19.686 7.4809C19.6382 7.21682 19.6115 6.94478 19.6115 6.66666H16.4572L16.4522 19.5278C16.3992 20.9681 15.234 22.1241 13.806 22.1241C13.3619 22.1241 12.944 22.0113 12.5758 21.8142C11.7318 21.3623 11.1543 20.4624 11.1543 19.4267C11.1543 17.9391 12.3439 16.7288 13.8055 16.7288C14.0784 16.7288 14.3403 16.7747 14.5879 16.8533V13.5772C14.3315 13.5416 14.071 13.5196 13.8055 13.5196C10.6043 13.5196 8 16.1693 8 19.4267C8 21.4251 8.98116 23.1935 10.4787 24.263C11.4216 24.9367 12.5689 25.3333 13.806 25.3333C17.0072 25.3333 19.6115 22.6836 19.6115 19.4267V12.9048C20.8485 13.808 22.3644 14.3404 24 14.3404V11.1312C23.1192 11.1312 22.2986 10.8647 21.6101 10.4082Z" fill="white"/>
</svg>
