<svg width="40" height="40" viewBox="0 0 40 40" fill="none" xmlns="http://www.w3.org/2000/svg">
<rect width="40" height="40" rx="20" fill="#A6AEBB"/>
<path d="M14.1973 12.9641C14.197 13.5289 13.9756 14.0704 13.5819 14.4696C13.1881 14.8687 12.6542 15.0928 12.0976 15.0925C11.541 15.0922 11.0073 14.8676 10.6139 14.468C10.2206 14.0685 9.99972 13.5267 10 12.9619C10.0003 12.3972 10.2217 11.8556 10.6154 11.4565C11.0092 11.0573 11.5431 10.8332 12.0997 10.8335C12.6563 10.8338 13.19 11.0584 13.5833 11.458C13.9767 11.8575 14.1976 12.3993 14.1973 12.9641ZM14.2602 16.6694H10.063V30.0002H14.2602V16.6694ZM20.8919 16.6694H16.7156V30.0002H20.8499V23.0047C20.8499 19.1077 25.8552 18.7457 25.8552 23.0047V30.0002H30V21.5567C30 14.9871 22.5918 15.232 20.8499 18.4582L20.8919 16.6694Z" fill="white"/>
</svg>
