<svg width="40" height="40" viewBox="0 0 40 40" fill="none" xmlns="http://www.w3.org/2000/svg">
<rect width="40" height="40" rx="20" fill="#A6AEBB"/>
<g clip-path="url(#clip0_1297_1187)">
<path d="M27.8991 15.8571C27.9112 16.0344 27.9112 16.2117 27.9112 16.3906C27.9112 21.8424 23.8144 28.13 16.3233 28.13V28.1267C14.1104 28.13 11.9435 27.4878 10.0806 26.277C10.4023 26.3162 10.7257 26.3358 11.0499 26.3367C12.8838 26.3383 14.6652 25.7149 16.108 24.5671C14.3652 24.5336 12.837 23.3824 12.3031 21.7019C12.9136 21.8211 13.5427 21.7966 14.1419 21.6308C12.2419 21.2419 10.8749 19.5507 10.8749 17.5867C10.8749 17.5687 10.8749 17.5515 10.8749 17.5344C11.4411 17.8538 12.0749 18.0311 12.7233 18.0507C10.9338 16.8391 10.3822 14.4273 11.4628 12.5417C13.5306 15.1193 16.5814 16.6863 19.8564 16.8522C19.5281 15.4192 19.9765 13.9175 21.0346 12.9102C22.6749 11.3481 25.2548 11.4282 26.7967 13.0891C27.7088 12.9069 28.583 12.5679 29.383 12.0875C29.079 13.0425 28.4427 13.8538 27.5927 14.3693C28.3999 14.2729 29.1886 14.054 29.9314 13.7198C29.3846 14.5499 28.6959 15.2729 27.8991 15.8571Z" fill="white"/>
</g>
<defs>
<clipPath id="clip0_1297_1187">
<rect width="20" height="16.6667" fill="white" transform="translate(10 11.6665)"/>
</clipPath>
</defs>
</svg>
