<svg width="40" height="40" viewBox="0 0 40 40" fill="none" xmlns="http://www.w3.org/2000/svg">
<rect width="40" height="40" rx="20" fill="#A6AEBB"/>
<path d="M27.0127 13.0105C25.777 12.1911 24.886 10.8795 24.6075 9.3513C24.5477 9.0212 24.5143 8.68115 24.5143 8.3335H20.5715L20.5652 24.4099C20.499 26.2103 19.0425 27.6553 17.2575 27.6553C16.7023 27.6553 16.18 27.5143 15.7198 27.2679C14.6648 26.7031 13.9428 25.5782 13.9428 24.2835C13.9428 22.4241 15.4299 20.9111 17.2569 20.9111C17.598 20.9111 17.9253 20.9685 18.2348 21.0668V16.9716C17.9144 16.9272 17.5888 16.8996 17.2569 16.8996C13.2554 16.8996 10 20.2117 10 24.2835C10 26.7815 11.2265 28.9921 13.0983 30.3289C14.277 31.1711 15.7112 31.6668 17.2575 31.6668C21.259 31.6668 24.5143 28.3547 24.5143 24.2835V16.1312C26.0606 17.2602 27.9555 17.9256 30 17.9256V13.9141C28.899 13.9141 27.8733 13.5811 27.0127 13.0105Z" fill="white"/>
</svg>
