<svg width="32" height="32" viewBox="0 0 32 32" fill="none" xmlns="http://www.w3.org/2000/svg">
<rect width="32" height="32" rx="16" fill="#A6AEBB"/>
<g clip-path="url(#clip0_1297_1596)">
<path d="M12.7035 8.09889C11.8565 8.14054 11.278 8.28185 10.7725 8.48818C10.2492 8.70069 9.80561 8.98548 9.36433 9.44703C8.92252 9.90886 8.6512 10.3718 8.44875 10.9174C8.25273 11.4453 8.11991 12.0482 8.0825 12.931C8.04537 13.8155 8.03685 14.0976 8.04099 16.3492C8.04512 18.6006 8.05466 18.8832 8.09515 19.7679C8.13563 20.6499 8.27079 21.2523 8.46887 21.7791C8.67313 22.3242 8.94625 22.786 9.38959 23.246C9.83269 23.7059 10.2773 23.9883 10.8014 24.1995C11.3077 24.4034 11.8867 24.5423 12.7339 24.581C13.583 24.6199 13.854 24.6285 16.0151 24.6242C18.1771 24.6199 18.4482 24.61 19.2973 24.5681C20.1442 24.5259 20.7222 24.3846 21.2282 24.1788C21.7515 23.9655 22.1951 23.6815 22.6364 23.2197C23.0777 22.7581 23.349 22.2949 23.5515 21.749C23.7475 21.2216 23.8808 20.6185 23.9177 19.7365C23.9549 18.8515 23.9636 18.5689 23.9595 16.3175C23.9554 14.0658 23.9456 13.7838 23.9053 12.8996C23.8651 12.0168 23.7295 11.4147 23.5316 10.8876C23.3271 10.3425 23.0542 9.88092 22.6112 9.42071C22.1681 8.96103 21.7234 8.67786 21.1993 8.4675C20.6928 8.26331 20.1141 8.12415 19.2668 8.086C18.4178 8.04677 18.1467 8.03818 15.9849 8.04248C13.8236 8.04677 13.5525 8.05645 12.7035 8.09889ZM12.7964 23.0886C12.0203 23.0534 11.5989 22.919 11.318 22.8065C10.9461 22.6565 10.6807 22.4768 10.4014 22.188C10.1226 21.8981 9.94952 21.6225 9.80432 21.2359C9.69522 20.9433 9.56395 20.5048 9.52758 19.6964C9.48812 18.8225 9.4791 18.5603 9.47523 16.3462C9.4711 14.1327 9.47883 13.8705 9.51546 12.9958C9.54873 12.1879 9.67847 11.7484 9.78627 11.4561C9.93018 11.0681 10.1022 10.7922 10.38 10.5013C10.6583 10.2103 10.9229 10.0306 11.2943 9.87931C11.5749 9.76512 11.9958 9.62945 12.7716 9.59104C13.6111 9.54966 13.8625 9.5408 15.9875 9.5365C18.1129 9.53219 18.3646 9.53999 19.2044 9.57841C19.9799 9.6136 20.4019 9.7474 20.6822 9.8605C21.0544 10.0104 21.3198 10.1891 21.5988 10.479C21.8779 10.7688 22.051 11.044 22.1962 11.4316C22.3058 11.7231 22.436 12.1621 22.4727 12.97C22.5126 13.8445 22.5217 14.1067 22.5255 16.3202C22.5296 18.5342 22.5219 18.7964 22.485 19.6706C22.4512 20.479 22.3225 20.9183 22.2142 21.2111C22.0703 21.5983 21.8983 21.8747 21.6202 22.1657C21.3422 22.4556 21.0776 22.6364 20.706 22.7876C20.4259 22.9016 20.0044 23.0375 19.2292 23.0759C18.3897 23.117 18.1382 23.1264 16.0125 23.1305C13.8876 23.1348 13.6361 23.1264 12.7964 23.0886ZM19.2857 11.901C19.2867 12.4501 19.7153 12.8948 20.2425 12.8937C20.7699 12.8926 21.1968 12.4464 21.196 11.8972C21.195 11.3481 20.7663 10.9032 20.2389 10.9043C19.7115 10.9053 19.2846 11.3518 19.2857 11.901ZM11.913 16.3414C11.9174 18.693 13.7509 20.5951 16.0078 20.5905C18.2651 20.586 20.0921 18.6766 20.0877 16.325C20.0834 13.9742 18.2496 12.071 15.9921 12.0756C13.7351 12.0802 11.9086 13.9904 11.913 16.3414ZM13.3467 16.3385C13.3441 14.8122 14.53 13.5723 15.995 13.5696C17.4602 13.5667 18.6507 14.8014 18.6535 16.328C18.6563 17.8545 17.4705 19.0941 16.005 19.0971C14.5401 19.1 13.3496 17.865 13.3467 16.3385Z" fill="white"/>
</g>
<defs>
<clipPath id="clip0_1297_1596">
<rect width="16" height="16.6667" fill="white" transform="translate(8 8)"/>
</clipPath>
</defs>
</svg>
