<svg width="40" height="40" viewBox="0 0 40 40" fill="none" xmlns="http://www.w3.org/2000/svg">
<rect width="40" height="40" rx="20" fill="#A6AEBB"/>
<g clip-path="url(#clip0_1297_1198)">
<path d="M15.8791 10.1235C14.8204 10.1756 14.0973 10.3522 13.4654 10.6101C12.8113 10.8758 12.2568 11.2318 11.7052 11.8087C11.1529 12.386 10.8138 12.9646 10.5607 13.6467C10.3157 14.3066 10.1496 15.0602 10.1029 16.1637C10.0565 17.2692 10.0458 17.6219 10.051 20.4364C10.0562 23.2506 10.0681 23.6039 10.1187 24.7098C10.1693 25.8123 10.3382 26.5652 10.5858 27.2238C10.8412 27.9052 11.1826 28.4825 11.7367 29.0574C12.2906 29.6323 12.8464 29.9853 13.5015 30.2493C14.1344 30.5041 14.8581 30.6778 15.9172 30.7261C16.9785 30.7748 17.3173 30.7856 20.0186 30.7802C22.7212 30.7748 23.06 30.7624 24.1213 30.71C25.18 30.6573 25.9025 30.4806 26.535 30.2234C27.1892 29.9567 27.7437 29.6018 28.2953 29.0245C28.8469 28.4475 29.186 27.8686 29.4391 27.1862C29.6841 26.5269 29.8508 25.773 29.8969 24.6705C29.9433 23.5643 29.9543 23.211 29.9491 20.3968C29.944 17.5822 29.9317 17.2296 29.8814 16.1244C29.8311 15.0209 29.6616 14.2683 29.4143 13.6094C29.1586 12.928 28.8176 12.3511 28.2637 11.7758C27.7098 11.2012 27.154 10.8472 26.4989 10.5843C25.8658 10.3291 25.1423 10.1551 24.0833 10.1074C23.022 10.0584 22.6831 10.0476 19.9809 10.053C17.2793 10.0584 16.9404 10.0705 15.8791 10.1235ZM15.9952 28.8606C15.0251 28.8166 14.4983 28.6487 14.1473 28.508C13.6824 28.3206 13.3506 28.0959 13.0015 27.7349C12.653 27.3726 12.4367 27.028 12.2552 26.5447C12.1188 26.179 11.9547 25.631 11.9092 24.6205C11.8599 23.528 11.8486 23.2003 11.8438 20.4327C11.8386 17.6659 11.8483 17.3381 11.8941 16.2446C11.9357 15.2348 12.0978 14.6854 12.2326 14.32C12.4125 13.8351 12.6275 13.4902 12.9747 13.1265C13.3226 12.7628 13.6533 12.5381 14.1176 12.3491C14.4684 12.2063 14.9945 12.0367 15.9642 11.9887C17.0136 11.937 17.3279 11.9259 19.9841 11.9205C22.6409 11.9152 22.9556 11.9249 24.0053 11.9729C24.9747 12.0169 25.5021 12.1842 25.8525 12.3255C26.3177 12.5129 26.6495 12.7363 26.9983 13.0986C27.3471 13.461 27.5635 13.8049 27.745 14.2895C27.882 14.6538 28.0448 15.2026 28.0906 16.2124C28.1405 17.3055 28.1518 17.6333 28.1566 20.4001C28.1618 23.1677 28.1521 23.4954 28.106 24.5882C28.0638 25.5987 27.9029 26.1478 27.7675 26.5138C27.5876 26.9978 27.3726 27.3433 27.0251 27.707C26.6775 28.0694 26.3468 28.2954 25.8822 28.4845C25.5321 28.6269 25.0053 28.7968 24.0362 28.8448C22.9868 28.8962 22.6725 28.9079 20.0154 28.913C17.3592 28.9184 17.0449 28.908 15.9952 28.8606ZM24.1068 14.8761C24.1081 15.5626 24.6439 16.1184 25.3029 16.117C25.9621 16.1157 26.4957 15.5579 26.4947 14.8714C26.4934 14.185 25.9576 13.6289 25.2984 13.6302C24.6391 13.6316 24.1055 14.1897 24.1068 14.8761ZM14.891 20.4267C14.8965 23.3662 17.1884 25.7438 20.0096 25.7381C22.8311 25.7324 25.1149 23.3457 25.1094 20.4062C25.104 17.4677 22.8118 15.0887 19.9899 15.0944C17.1687 15.1001 14.8855 17.4879 14.891 20.4267ZM16.6832 20.423C16.6799 18.5152 18.1623 16.9653 19.9935 16.962C21.825 16.9583 23.3131 18.5017 23.3166 20.4099C23.3202 22.318 21.8378 23.8675 20.006 23.8712C18.1749 23.8749 16.6867 22.3311 16.6832 20.423Z" fill="white"/>
</g>
<defs>
<clipPath id="clip0_1297_1198">
<rect width="20" height="20.8333" fill="white" transform="translate(10 10)"/>
</clipPath>
</defs>
</svg>
