<svg width="40" height="40" viewBox="0 0 40 40" fill="none" xmlns="http://www.w3.org/2000/svg">
<rect width="40" height="40" rx="20" fill="#A6AEBB"/>
<g clip-path="url(#clip0_1297_1192)">
<path d="M30.3804 14.8423C30.1312 13.9203 29.3971 13.1942 28.4649 12.9478C26.7752 12.5 19.9998 12.5 19.9998 12.5C19.9998 12.5 13.2245 12.5 11.5348 12.9478C10.6026 13.1942 9.8684 13.9203 9.61925 14.8423C9.1665 16.5134 9.1665 20 9.1665 20C9.1665 20 9.1665 23.4866 9.61925 25.1578C9.8684 26.0797 10.6026 26.8058 11.5348 27.0523C13.2245 27.5 19.9998 27.5 19.9998 27.5C19.9998 27.5 26.7752 27.5 28.4649 27.0523C29.3971 26.8058 30.1312 26.0797 30.3804 25.1578C30.8332 23.4866 30.8332 20 30.8332 20C30.8332 20 30.8332 16.5134 30.3804 14.8423Z" fill="white"/>
<path d="M17.7837 23.1655L23.4466 20.0001L17.7837 16.8344V23.1655Z" fill="#A6AEBB"/>
</g>
<defs>
<clipPath id="clip0_1297_1192">
<rect width="21.6667" height="15" fill="white" transform="translate(9.1665 12.5)"/>
</clipPath>
</defs>
</svg>
